<mxfile host="Electron" agent="Mozilla/5.0 (Windows NT 10.0; Win64; x64) AppleWebKit/537.36 (KHTML, like Gecko) draw.io/24.7.8 Chrome/128.0.6613.36 Electron/32.0.1 Safari/537.36" version="24.7.8">
  <diagram name="Page-1" id="Pu-tWNmuzFF9qY0DIkJC">
    <mxGraphModel dx="2890" dy="992" grid="1" gridSize="10" guides="1" tooltips="1" connect="1" arrows="1" fold="1" page="1" pageScale="1" pageWidth="850" pageHeight="1100" math="0" shadow="0">
      <root>
        <mxCell id="0" />
        <mxCell id="1" parent="0" />
        <mxCell id="hDxaC9_sMp4ZAa9-V2y2-1" value="" style="ellipse;html=1;shape=startState;fillColor=#000000;strokeColor=#FFFFFF;" parent="1" vertex="1">
          <mxGeometry x="-114.5" y="10" width="30" height="30" as="geometry" />
        </mxCell>
        <mxCell id="hDxaC9_sMp4ZAa9-V2y2-2" value="" style="edgeStyle=orthogonalEdgeStyle;html=1;verticalAlign=bottom;endArrow=open;endSize=8;rounded=0;entryX=0.5;entryY=0;entryDx=0;entryDy=0;" parent="1" target="hDxaC9_sMp4ZAa9-V2y2-3" edge="1">
          <mxGeometry relative="1" as="geometry">
            <mxPoint x="-100.5" y="70" as="targetPoint" />
            <mxPoint x="-100.5" y="30" as="sourcePoint" />
            <Array as="points">
              <mxPoint x="-100.5" y="30" />
            </Array>
          </mxGeometry>
        </mxCell>
        <mxCell id="hDxaC9_sMp4ZAa9-V2y2-3" value="New&amp;nbsp;&lt;div&gt;&amp;nbsp; User ?&lt;/div&gt;" style="rhombus;whiteSpace=wrap;html=1;" parent="1" vertex="1">
          <mxGeometry x="-140.5" y="60" width="80" height="40" as="geometry" />
        </mxCell>
        <mxCell id="hDxaC9_sMp4ZAa9-V2y2-4" value="Login" style="rounded=1;whiteSpace=wrap;html=1;" parent="1" vertex="1">
          <mxGeometry x="25.5" y="110" width="120" height="30" as="geometry" />
        </mxCell>
        <mxCell id="hDxaC9_sMp4ZAa9-V2y2-5" value="" style="endArrow=open;html=1;rounded=0;align=center;verticalAlign=top;endFill=0;labelBackgroundColor=none;exitX=0;exitY=0.5;exitDx=0;exitDy=0;" parent="1" source="hDxaC9_sMp4ZAa9-V2y2-3" edge="1">
          <mxGeometry x="0.375" y="-70" relative="1" as="geometry">
            <mxPoint x="-144.5" y="80" as="sourcePoint" />
            <mxPoint x="-284.5" y="110" as="targetPoint" />
            <Array as="points">
              <mxPoint x="-284.5" y="80" />
            </Array>
            <mxPoint as="offset" />
          </mxGeometry>
        </mxCell>
        <mxCell id="hDxaC9_sMp4ZAa9-V2y2-6" value="Yes" style="text;html=1;align=center;verticalAlign=middle;resizable=0;points=[];autosize=1;strokeColor=none;fillColor=none;" parent="1" vertex="1">
          <mxGeometry x="-224.5" y="58" width="40" height="30" as="geometry" />
        </mxCell>
        <mxCell id="hDxaC9_sMp4ZAa9-V2y2-7" value="No" style="text;html=1;align=center;verticalAlign=middle;resizable=0;points=[];autosize=1;strokeColor=none;fillColor=none;" parent="1" vertex="1">
          <mxGeometry x="-34.5" y="58" width="40" height="30" as="geometry" />
        </mxCell>
        <mxCell id="hDxaC9_sMp4ZAa9-V2y2-8" value="Register" style="rounded=1;whiteSpace=wrap;html=1;" parent="1" vertex="1">
          <mxGeometry x="-344.5" y="110" width="120" height="30" as="geometry" />
        </mxCell>
        <mxCell id="hDxaC9_sMp4ZAa9-V2y2-9" value="" style="endArrow=open;html=1;rounded=0;align=center;verticalAlign=top;endFill=0;labelBackgroundColor=none;endSize=6;exitX=0.5;exitY=1;exitDx=0;exitDy=0;" parent="1" source="hDxaC9_sMp4ZAa9-V2y2-8" edge="1">
          <mxGeometry relative="1" as="geometry">
            <mxPoint x="-164.5" y="200" as="sourcePoint" />
            <mxPoint x="-284.5" y="160" as="targetPoint" />
          </mxGeometry>
        </mxCell>
        <mxCell id="hDxaC9_sMp4ZAa9-V2y2-10" value="" style="endArrow=open;html=1;rounded=0;align=center;verticalAlign=top;endFill=0;labelBackgroundColor=none;endSize=6;exitX=0.5;exitY=1;exitDx=0;exitDy=0;" parent="1" edge="1">
          <mxGeometry relative="1" as="geometry">
            <mxPoint x="85" y="140" as="sourcePoint" />
            <mxPoint x="85" y="160" as="targetPoint" />
          </mxGeometry>
        </mxCell>
        <mxCell id="hDxaC9_sMp4ZAa9-V2y2-11" value="Enter Details" style="rounded=1;whiteSpace=wrap;html=1;" parent="1" vertex="1">
          <mxGeometry x="-344.5" y="160" width="120" height="30" as="geometry" />
        </mxCell>
        <mxCell id="hDxaC9_sMp4ZAa9-V2y2-12" value="Enter Details" style="rounded=1;whiteSpace=wrap;html=1;" parent="1" vertex="1">
          <mxGeometry x="25.5" y="160" width="120" height="30" as="geometry" />
        </mxCell>
        <mxCell id="hDxaC9_sMp4ZAa9-V2y2-13" value="Valid" style="rhombus;whiteSpace=wrap;html=1;" parent="1" vertex="1">
          <mxGeometry x="-324.5" y="210" width="80" height="40" as="geometry" />
        </mxCell>
        <mxCell id="hDxaC9_sMp4ZAa9-V2y2-14" value="" style="edgeStyle=orthogonalEdgeStyle;html=1;align=left;verticalAlign=bottom;endArrow=open;endSize=8;rounded=0;" parent="1" source="hDxaC9_sMp4ZAa9-V2y2-13" edge="1">
          <mxGeometry x="1" y="-82" relative="1" as="geometry">
            <mxPoint x="-204.5" y="230" as="targetPoint" />
            <mxPoint x="17" y="-2" as="offset" />
          </mxGeometry>
        </mxCell>
        <mxCell id="hDxaC9_sMp4ZAa9-V2y2-15" value="" style="edgeStyle=orthogonalEdgeStyle;html=1;align=left;verticalAlign=top;endArrow=open;endSize=8;rounded=0;" parent="1" source="hDxaC9_sMp4ZAa9-V2y2-13" edge="1">
          <mxGeometry x="0.9594" y="70" relative="1" as="geometry">
            <mxPoint x="-284.5" y="270" as="targetPoint" />
            <mxPoint as="offset" />
          </mxGeometry>
        </mxCell>
        <mxCell id="hDxaC9_sMp4ZAa9-V2y2-16" value="" style="endArrow=open;html=1;rounded=0;align=center;verticalAlign=top;endFill=0;labelBackgroundColor=none;endSize=6;exitX=0.5;exitY=1;exitDx=0;exitDy=0;" parent="1" edge="1">
          <mxGeometry relative="1" as="geometry">
            <mxPoint x="-285.03" y="190" as="sourcePoint" />
            <mxPoint x="-285.03" y="210" as="targetPoint" />
          </mxGeometry>
        </mxCell>
        <mxCell id="hDxaC9_sMp4ZAa9-V2y2-17" value="Incorrect&amp;nbsp;&lt;div&gt;Info&lt;/div&gt;" style="rounded=1;whiteSpace=wrap;html=1;" parent="1" vertex="1">
          <mxGeometry x="-205.5" y="215" width="91" height="30" as="geometry" />
        </mxCell>
        <mxCell id="hDxaC9_sMp4ZAa9-V2y2-18" value="" style="edgeStyle=orthogonalEdgeStyle;html=1;align=left;verticalAlign=bottom;endArrow=open;endSize=8;rounded=0;entryX=1;entryY=0.5;entryDx=0;entryDy=0;exitX=0.5;exitY=0;exitDx=0;exitDy=0;" parent="1" source="hDxaC9_sMp4ZAa9-V2y2-17" target="hDxaC9_sMp4ZAa9-V2y2-11" edge="1">
          <mxGeometry x="1" y="-82" relative="1" as="geometry">
            <mxPoint x="-144.5" y="174.47000000000003" as="targetPoint" />
            <mxPoint x="-154.5" y="210" as="sourcePoint" />
            <mxPoint x="17" y="-2" as="offset" />
          </mxGeometry>
        </mxCell>
        <mxCell id="hDxaC9_sMp4ZAa9-V2y2-19" value="" style="endArrow=open;html=1;rounded=0;align=center;verticalAlign=top;endFill=0;labelBackgroundColor=none;entryX=0.5;entryY=0;entryDx=0;entryDy=0;" parent="1" target="hDxaC9_sMp4ZAa9-V2y2-4" edge="1">
          <mxGeometry x="0.375" y="-70" relative="1" as="geometry">
            <mxPoint x="-60.5" y="80" as="sourcePoint" />
            <mxPoint x="199.5" y="120" as="targetPoint" />
            <Array as="points">
              <mxPoint x="85.5" y="80" />
            </Array>
            <mxPoint as="offset" />
          </mxGeometry>
        </mxCell>
        <mxCell id="hDxaC9_sMp4ZAa9-V2y2-20" value="Send Notification Register Successfully" style="rounded=1;whiteSpace=wrap;html=1;" parent="1" vertex="1">
          <mxGeometry x="-337.25" y="270" width="105.5" height="50" as="geometry" />
        </mxCell>
        <mxCell id="hDxaC9_sMp4ZAa9-V2y2-21" value="" style="edgeStyle=orthogonalEdgeStyle;html=1;align=left;verticalAlign=bottom;endArrow=open;endSize=8;rounded=0;exitX=1;exitY=0.5;exitDx=0;exitDy=0;entryX=0;entryY=0.5;entryDx=0;entryDy=0;" parent="1" source="hDxaC9_sMp4ZAa9-V2y2-20" target="hDxaC9_sMp4ZAa9-V2y2-4" edge="1">
          <mxGeometry x="1" y="-82" relative="1" as="geometry">
            <mxPoint x="-34.5" y="130" as="targetPoint" />
            <mxPoint x="-89.5" y="285" as="sourcePoint" />
            <mxPoint x="17" y="-2" as="offset" />
            <Array as="points">
              <mxPoint x="-84.5" y="295" />
              <mxPoint x="-84.5" y="125" />
            </Array>
          </mxGeometry>
        </mxCell>
        <mxCell id="hDxaC9_sMp4ZAa9-V2y2-22" value="Yes" style="text;html=1;align=center;verticalAlign=middle;resizable=0;points=[];autosize=1;strokeColor=none;fillColor=none;" parent="1" vertex="1">
          <mxGeometry x="-271.75" y="240" width="40" height="30" as="geometry" />
        </mxCell>
        <mxCell id="hDxaC9_sMp4ZAa9-V2y2-23" value="No" style="text;html=1;align=center;verticalAlign=middle;resizable=0;points=[];autosize=1;strokeColor=none;fillColor=none;" parent="1" vertex="1">
          <mxGeometry x="-254.5" y="200" width="40" height="30" as="geometry" />
        </mxCell>
        <mxCell id="hDxaC9_sMp4ZAa9-V2y2-24" value="Valid" style="rhombus;whiteSpace=wrap;html=1;" parent="1" vertex="1">
          <mxGeometry x="48.25" y="210" width="80" height="40" as="geometry" />
        </mxCell>
        <mxCell id="hDxaC9_sMp4ZAa9-V2y2-25" value="" style="edgeStyle=orthogonalEdgeStyle;html=1;align=left;verticalAlign=bottom;endArrow=open;endSize=8;rounded=0;" parent="1" source="hDxaC9_sMp4ZAa9-V2y2-24" edge="1">
          <mxGeometry x="1" y="-82" relative="1" as="geometry">
            <mxPoint x="168.25" y="230" as="targetPoint" />
            <mxPoint x="17" y="-2" as="offset" />
          </mxGeometry>
        </mxCell>
        <mxCell id="hDxaC9_sMp4ZAa9-V2y2-26" value="" style="edgeStyle=orthogonalEdgeStyle;html=1;align=left;verticalAlign=top;endArrow=open;endSize=8;rounded=0;" parent="1" source="hDxaC9_sMp4ZAa9-V2y2-24" edge="1">
          <mxGeometry x="0.9594" y="70" relative="1" as="geometry">
            <mxPoint x="88.25" y="270" as="targetPoint" />
            <mxPoint as="offset" />
          </mxGeometry>
        </mxCell>
        <mxCell id="hDxaC9_sMp4ZAa9-V2y2-27" value="" style="endArrow=open;html=1;rounded=0;align=center;verticalAlign=top;endFill=0;labelBackgroundColor=none;endSize=6;exitX=0.5;exitY=1;exitDx=0;exitDy=0;" parent="1" edge="1">
          <mxGeometry relative="1" as="geometry">
            <mxPoint x="87.72000000000003" y="190" as="sourcePoint" />
            <mxPoint x="87.72000000000003" y="210" as="targetPoint" />
          </mxGeometry>
        </mxCell>
        <mxCell id="hDxaC9_sMp4ZAa9-V2y2-28" value="Incorrect&amp;nbsp;&lt;div&gt;Info&lt;/div&gt;" style="rounded=1;whiteSpace=wrap;html=1;" parent="1" vertex="1">
          <mxGeometry x="167.25" y="215" width="91" height="30" as="geometry" />
        </mxCell>
        <mxCell id="hDxaC9_sMp4ZAa9-V2y2-368" style="edgeStyle=orthogonalEdgeStyle;rounded=0;orthogonalLoop=1;jettySize=auto;html=1;exitX=0.5;exitY=1;exitDx=0;exitDy=0;entryX=0.433;entryY=0.389;entryDx=0;entryDy=0;entryPerimeter=0;" parent="1" source="hDxaC9_sMp4ZAa9-V2y2-29" target="hDxaC9_sMp4ZAa9-V2y2-34" edge="1">
          <mxGeometry relative="1" as="geometry">
            <mxPoint x="-30" y="360" as="targetPoint" />
          </mxGeometry>
        </mxCell>
        <mxCell id="hDxaC9_sMp4ZAa9-V2y2-29" value="Send Notification Login&lt;div&gt;&amp;nbsp;Successfully&lt;/div&gt;" style="rounded=1;whiteSpace=wrap;html=1;" parent="1" vertex="1">
          <mxGeometry x="35.5" y="270" width="105.5" height="50" as="geometry" />
        </mxCell>
        <mxCell id="hDxaC9_sMp4ZAa9-V2y2-30" value="Yes" style="text;html=1;align=center;verticalAlign=middle;resizable=0;points=[];autosize=1;strokeColor=none;fillColor=none;" parent="1" vertex="1">
          <mxGeometry x="101" y="240" width="40" height="30" as="geometry" />
        </mxCell>
        <mxCell id="hDxaC9_sMp4ZAa9-V2y2-31" value="No" style="text;html=1;align=center;verticalAlign=middle;resizable=0;points=[];autosize=1;strokeColor=none;fillColor=none;" parent="1" vertex="1">
          <mxGeometry x="118.25" y="200" width="40" height="30" as="geometry" />
        </mxCell>
        <mxCell id="hDxaC9_sMp4ZAa9-V2y2-32" value="" style="edgeStyle=orthogonalEdgeStyle;html=1;align=left;verticalAlign=bottom;endArrow=open;endSize=8;rounded=0;entryX=1;entryY=0.5;entryDx=0;entryDy=0;exitX=0.5;exitY=0;exitDx=0;exitDy=0;" parent="1" source="hDxaC9_sMp4ZAa9-V2y2-28" target="hDxaC9_sMp4ZAa9-V2y2-12" edge="1">
          <mxGeometry x="1" y="-82" relative="1" as="geometry">
            <mxPoint x="175.5" y="170" as="targetPoint" />
            <mxPoint x="215.5" y="210" as="sourcePoint" />
            <mxPoint x="17" y="-2" as="offset" />
          </mxGeometry>
        </mxCell>
        <mxCell id="hDxaC9_sMp4ZAa9-V2y2-34" value="" style="shape=line;html=1;strokeWidth=6;strokeColor=#333333;" parent="1" vertex="1">
          <mxGeometry x="-761" y="370" width="1941" height="10" as="geometry" />
        </mxCell>
        <mxCell id="hDxaC9_sMp4ZAa9-V2y2-213" style="edgeStyle=orthogonalEdgeStyle;rounded=0;orthogonalLoop=1;jettySize=auto;html=1;exitX=0.5;exitY=1;exitDx=0;exitDy=0;entryX=0.5;entryY=0;entryDx=0;entryDy=0;" parent="1" source="hDxaC9_sMp4ZAa9-V2y2-35" target="hDxaC9_sMp4ZAa9-V2y2-37" edge="1">
          <mxGeometry relative="1" as="geometry" />
        </mxCell>
        <mxCell id="hDxaC9_sMp4ZAa9-V2y2-35" value="Search&lt;div&gt;Product&amp;nbsp;&lt;/div&gt;" style="rounded=1;whiteSpace=wrap;html=1;" parent="1" vertex="1">
          <mxGeometry x="-771" y="400" width="91" height="30" as="geometry" />
        </mxCell>
        <mxCell id="hDxaC9_sMp4ZAa9-V2y2-214" style="edgeStyle=orthogonalEdgeStyle;rounded=0;orthogonalLoop=1;jettySize=auto;html=1;exitX=0.5;exitY=1;exitDx=0;exitDy=0;entryX=0.5;entryY=0;entryDx=0;entryDy=0;" parent="1" source="hDxaC9_sMp4ZAa9-V2y2-37" target="hDxaC9_sMp4ZAa9-V2y2-43" edge="1">
          <mxGeometry relative="1" as="geometry" />
        </mxCell>
        <mxCell id="hDxaC9_sMp4ZAa9-V2y2-37" value="Apply Filters" style="rounded=1;whiteSpace=wrap;html=1;" parent="1" vertex="1">
          <mxGeometry x="-771" y="440" width="91" height="30" as="geometry" />
        </mxCell>
        <mxCell id="hDxaC9_sMp4ZAa9-V2y2-217" style="edgeStyle=orthogonalEdgeStyle;rounded=0;orthogonalLoop=1;jettySize=auto;html=1;exitX=0.5;exitY=1;exitDx=0;exitDy=0;entryX=0.5;entryY=0;entryDx=0;entryDy=0;" parent="1" source="hDxaC9_sMp4ZAa9-V2y2-38" target="hDxaC9_sMp4ZAa9-V2y2-59" edge="1">
          <mxGeometry relative="1" as="geometry" />
        </mxCell>
        <mxCell id="hDxaC9_sMp4ZAa9-V2y2-38" value="Display All Product" style="rounded=1;whiteSpace=wrap;html=1;" parent="1" vertex="1">
          <mxGeometry x="-781.5" y="770" width="91" height="30" as="geometry" />
        </mxCell>
        <mxCell id="hDxaC9_sMp4ZAa9-V2y2-39" value="Add to Cart&amp;nbsp;" style="rounded=1;whiteSpace=wrap;html=1;" parent="1" vertex="1">
          <mxGeometry x="-776.5" y="680" width="91" height="30" as="geometry" />
        </mxCell>
        <mxCell id="hDxaC9_sMp4ZAa9-V2y2-40" value="View&amp;nbsp;&lt;div&gt;Details&lt;/div&gt;" style="rounded=1;whiteSpace=wrap;html=1;" parent="1" vertex="1">
          <mxGeometry x="-761" y="535" width="59" height="30" as="geometry" />
        </mxCell>
        <mxCell id="hDxaC9_sMp4ZAa9-V2y2-219" style="edgeStyle=orthogonalEdgeStyle;rounded=0;orthogonalLoop=1;jettySize=auto;html=1;exitX=0.5;exitY=1;exitDx=0;exitDy=0;entryX=0.5;entryY=0;entryDx=0;entryDy=0;" parent="1" source="hDxaC9_sMp4ZAa9-V2y2-41" target="hDxaC9_sMp4ZAa9-V2y2-38" edge="1">
          <mxGeometry relative="1" as="geometry" />
        </mxCell>
        <mxCell id="hDxaC9_sMp4ZAa9-V2y2-41" value="Added to cart Successfully" style="rounded=1;whiteSpace=wrap;html=1;" parent="1" vertex="1">
          <mxGeometry x="-811" y="720" width="160" height="30" as="geometry" />
        </mxCell>
        <mxCell id="hDxaC9_sMp4ZAa9-V2y2-43" value="View Product" style="rounded=1;whiteSpace=wrap;html=1;" parent="1" vertex="1">
          <mxGeometry x="-771" y="485" width="91" height="30" as="geometry" />
        </mxCell>
        <mxCell id="hDxaC9_sMp4ZAa9-V2y2-225" style="edgeStyle=orthogonalEdgeStyle;rounded=0;orthogonalLoop=1;jettySize=auto;html=1;exitX=0.5;exitY=1;exitDx=0;exitDy=0;entryX=0.5;entryY=0;entryDx=0;entryDy=0;" parent="1" source="hDxaC9_sMp4ZAa9-V2y2-45" target="hDxaC9_sMp4ZAa9-V2y2-49" edge="1">
          <mxGeometry relative="1" as="geometry" />
        </mxCell>
        <mxCell id="hDxaC9_sMp4ZAa9-V2y2-45" value="Check for&amp;nbsp;&lt;span style=&quot;background-color: initial;&quot;&gt;Availability&lt;/span&gt;" style="rounded=1;whiteSpace=wrap;html=1;" parent="1" vertex="1">
          <mxGeometry x="-790" y="610" width="130" height="30" as="geometry" />
        </mxCell>
        <mxCell id="hDxaC9_sMp4ZAa9-V2y2-221" style="edgeStyle=orthogonalEdgeStyle;rounded=0;orthogonalLoop=1;jettySize=auto;html=1;exitX=0.5;exitY=1;exitDx=0;exitDy=0;entryX=0.5;entryY=0;entryDx=0;entryDy=0;" parent="1" source="hDxaC9_sMp4ZAa9-V2y2-49" target="hDxaC9_sMp4ZAa9-V2y2-39" edge="1">
          <mxGeometry relative="1" as="geometry" />
        </mxCell>
        <mxCell id="hDxaC9_sMp4ZAa9-V2y2-222" style="edgeStyle=orthogonalEdgeStyle;rounded=0;orthogonalLoop=1;jettySize=auto;html=1;exitX=1;exitY=0.5;exitDx=0;exitDy=0;" parent="1" source="hDxaC9_sMp4ZAa9-V2y2-49" target="hDxaC9_sMp4ZAa9-V2y2-55" edge="1">
          <mxGeometry relative="1" as="geometry">
            <mxPoint x="-676.5" y="654.7692307692308" as="targetPoint" />
          </mxGeometry>
        </mxCell>
        <mxCell id="hDxaC9_sMp4ZAa9-V2y2-49" value="" style="rhombus;whiteSpace=wrap;html=1;" parent="1" vertex="1">
          <mxGeometry x="-751" y="650" width="40" height="20" as="geometry" />
        </mxCell>
        <mxCell id="hDxaC9_sMp4ZAa9-V2y2-51" value="Yes" style="text;html=1;align=center;verticalAlign=middle;resizable=0;points=[];autosize=1;strokeColor=none;fillColor=none;" parent="1" vertex="1">
          <mxGeometry x="-776.5" y="650" width="40" height="30" as="geometry" />
        </mxCell>
        <mxCell id="hDxaC9_sMp4ZAa9-V2y2-52" value="No" style="text;html=1;align=center;verticalAlign=middle;resizable=0;points=[];autosize=1;strokeColor=none;fillColor=none;" parent="1" vertex="1">
          <mxGeometry x="-725.5" y="635" width="40" height="30" as="geometry" />
        </mxCell>
        <mxCell id="hDxaC9_sMp4ZAa9-V2y2-53" style="edgeStyle=orthogonalEdgeStyle;rounded=0;orthogonalLoop=1;jettySize=auto;html=1;exitX=0.5;exitY=1;exitDx=0;exitDy=0;" parent="1" source="hDxaC9_sMp4ZAa9-V2y2-49" target="hDxaC9_sMp4ZAa9-V2y2-49" edge="1">
          <mxGeometry relative="1" as="geometry" />
        </mxCell>
        <mxCell id="hDxaC9_sMp4ZAa9-V2y2-55" value="&lt;div&gt;View Other Product&lt;/div&gt;" style="rounded=1;whiteSpace=wrap;html=1;" parent="1" vertex="1">
          <mxGeometry x="-651" y="635" width="50" height="50" as="geometry" />
        </mxCell>
        <mxCell id="hDxaC9_sMp4ZAa9-V2y2-59" value="Wants&amp;nbsp;&lt;div&gt;to Edit&lt;/div&gt;" style="rhombus;whiteSpace=wrap;html=1;" parent="1" vertex="1">
          <mxGeometry x="-771" y="820" width="70" height="50" as="geometry" />
        </mxCell>
        <mxCell id="hDxaC9_sMp4ZAa9-V2y2-61" value="No" style="text;html=1;align=center;verticalAlign=middle;resizable=0;points=[];autosize=1;strokeColor=none;fillColor=none;" parent="1" vertex="1">
          <mxGeometry x="-725.5" y="805" width="40" height="30" as="geometry" />
        </mxCell>
        <mxCell id="hDxaC9_sMp4ZAa9-V2y2-270" style="edgeStyle=orthogonalEdgeStyle;rounded=0;orthogonalLoop=1;jettySize=auto;html=1;exitX=0.75;exitY=0.5;exitDx=0;exitDy=0;exitPerimeter=0;" parent="1" source="hDxaC9_sMp4ZAa9-V2y2-63" target="hDxaC9_sMp4ZAa9-V2y2-69" edge="1">
          <mxGeometry relative="1" as="geometry">
            <mxPoint x="-650" y="900" as="targetPoint" />
            <Array as="points">
              <mxPoint x="-650" y="885" />
            </Array>
          </mxGeometry>
        </mxCell>
        <mxCell id="hDxaC9_sMp4ZAa9-V2y2-63" value="" style="shape=line;html=1;strokeWidth=6;strokeColor=#000000;" parent="1" vertex="1">
          <mxGeometry x="-815.5" y="880" width="180" height="10" as="geometry" />
        </mxCell>
        <mxCell id="hDxaC9_sMp4ZAa9-V2y2-66" value="View Cart" style="rounded=1;whiteSpace=wrap;html=1;" parent="1" vertex="1">
          <mxGeometry x="-815.5" y="910" width="60" height="30" as="geometry" />
        </mxCell>
        <mxCell id="hDxaC9_sMp4ZAa9-V2y2-67" value="Add Quantity" style="rounded=1;whiteSpace=wrap;html=1;" parent="1" vertex="1">
          <mxGeometry x="-749" y="910" width="60" height="30" as="geometry" />
        </mxCell>
        <mxCell id="hDxaC9_sMp4ZAa9-V2y2-69" value="Remove&lt;div&gt;From Cart&lt;/div&gt;" style="rounded=1;whiteSpace=wrap;html=1;" parent="1" vertex="1">
          <mxGeometry x="-678.25" y="910" width="63.75" height="30" as="geometry" />
        </mxCell>
        <mxCell id="hDxaC9_sMp4ZAa9-V2y2-71" value="" style="shape=line;html=1;strokeWidth=6;strokeColor=#000000;" parent="1" vertex="1">
          <mxGeometry x="-815.5" y="960" width="180" height="10" as="geometry" />
        </mxCell>
        <mxCell id="hDxaC9_sMp4ZAa9-V2y2-276" style="edgeStyle=orthogonalEdgeStyle;rounded=0;orthogonalLoop=1;jettySize=auto;html=1;exitX=0.5;exitY=1;exitDx=0;exitDy=0;entryX=0.5;entryY=0;entryDx=0;entryDy=0;" parent="1" source="hDxaC9_sMp4ZAa9-V2y2-75" target="hDxaC9_sMp4ZAa9-V2y2-77" edge="1">
          <mxGeometry relative="1" as="geometry" />
        </mxCell>
        <mxCell id="hDxaC9_sMp4ZAa9-V2y2-75" value="Enter Coupen&amp;nbsp;&lt;div&gt;Code&lt;/div&gt;" style="rounded=1;whiteSpace=wrap;html=1;" parent="1" vertex="1">
          <mxGeometry x="-612.5" y="835" width="91" height="30" as="geometry" />
        </mxCell>
        <mxCell id="hDxaC9_sMp4ZAa9-V2y2-278" style="edgeStyle=orthogonalEdgeStyle;rounded=0;orthogonalLoop=1;jettySize=auto;html=1;exitX=0.5;exitY=1;exitDx=0;exitDy=0;entryX=0.5;entryY=0;entryDx=0;entryDy=0;" parent="1" source="hDxaC9_sMp4ZAa9-V2y2-77" target="hDxaC9_sMp4ZAa9-V2y2-81" edge="1">
          <mxGeometry relative="1" as="geometry" />
        </mxCell>
        <mxCell id="hDxaC9_sMp4ZAa9-V2y2-280" style="edgeStyle=orthogonalEdgeStyle;rounded=0;orthogonalLoop=1;jettySize=auto;html=1;exitX=1;exitY=0.5;exitDx=0;exitDy=0;" parent="1" source="hDxaC9_sMp4ZAa9-V2y2-77" edge="1">
          <mxGeometry relative="1" as="geometry">
            <mxPoint x="-510" y="900.3333333333333" as="targetPoint" />
          </mxGeometry>
        </mxCell>
        <mxCell id="hDxaC9_sMp4ZAa9-V2y2-77" value="Valid&amp;nbsp;" style="rhombus;whiteSpace=wrap;html=1;" parent="1" vertex="1">
          <mxGeometry x="-605" y="885" width="76" height="30" as="geometry" />
        </mxCell>
        <mxCell id="hDxaC9_sMp4ZAa9-V2y2-78" value="No" style="text;html=1;align=center;verticalAlign=middle;resizable=0;points=[];autosize=1;strokeColor=none;fillColor=none;" parent="1" vertex="1">
          <mxGeometry x="-544.87" y="865" width="40" height="30" as="geometry" />
        </mxCell>
        <mxCell id="hDxaC9_sMp4ZAa9-V2y2-80" value="Yes" style="text;html=1;align=center;verticalAlign=middle;resizable=0;points=[];autosize=1;strokeColor=none;fillColor=none;" parent="1" vertex="1">
          <mxGeometry x="-800" y="840" width="40" height="30" as="geometry" />
        </mxCell>
        <mxCell id="hDxaC9_sMp4ZAa9-V2y2-279" style="edgeStyle=orthogonalEdgeStyle;rounded=0;orthogonalLoop=1;jettySize=auto;html=1;exitX=0.5;exitY=1;exitDx=0;exitDy=0;" parent="1" source="hDxaC9_sMp4ZAa9-V2y2-81" target="hDxaC9_sMp4ZAa9-V2y2-84" edge="1">
          <mxGeometry relative="1" as="geometry" />
        </mxCell>
        <mxCell id="hDxaC9_sMp4ZAa9-V2y2-81" value="Voucher Applied" style="rounded=1;whiteSpace=wrap;html=1;" parent="1" vertex="1">
          <mxGeometry x="-612.5" y="935" width="91" height="30" as="geometry" />
        </mxCell>
        <mxCell id="hDxaC9_sMp4ZAa9-V2y2-83" value="Yes" style="text;html=1;align=center;verticalAlign=middle;resizable=0;points=[];autosize=1;strokeColor=none;fillColor=none;" parent="1" vertex="1">
          <mxGeometry x="-561.5" y="905" width="40" height="30" as="geometry" />
        </mxCell>
        <mxCell id="hDxaC9_sMp4ZAa9-V2y2-282" style="edgeStyle=orthogonalEdgeStyle;rounded=0;orthogonalLoop=1;jettySize=auto;html=1;exitX=0.5;exitY=1;exitDx=0;exitDy=0;entryX=0.5;entryY=0;entryDx=0;entryDy=0;" parent="1" source="hDxaC9_sMp4ZAa9-V2y2-84" target="hDxaC9_sMp4ZAa9-V2y2-281" edge="1">
          <mxGeometry relative="1" as="geometry" />
        </mxCell>
        <mxCell id="hDxaC9_sMp4ZAa9-V2y2-84" value="Calculate Discount" style="rounded=1;whiteSpace=wrap;html=1;" parent="1" vertex="1">
          <mxGeometry x="-612.5" y="985" width="91" height="30" as="geometry" />
        </mxCell>
        <mxCell id="hDxaC9_sMp4ZAa9-V2y2-86" value="" style="endArrow=open;html=1;rounded=0;align=center;verticalAlign=top;endFill=0;labelBackgroundColor=none;endSize=6;exitX=0.477;exitY=0.745;exitDx=0;exitDy=0;exitPerimeter=0;" parent="1" source="hDxaC9_sMp4ZAa9-V2y2-71" edge="1">
          <mxGeometry relative="1" as="geometry">
            <mxPoint x="-725.5" y="960" as="sourcePoint" />
            <mxPoint x="-729.5" y="990" as="targetPoint" />
          </mxGeometry>
        </mxCell>
        <mxCell id="hDxaC9_sMp4ZAa9-V2y2-87" value="Recalculate&lt;div&gt;Total Price&lt;/div&gt;" style="rounded=1;whiteSpace=wrap;html=1;" parent="1" vertex="1">
          <mxGeometry x="-771" y="990" width="91" height="30" as="geometry" />
        </mxCell>
        <mxCell id="hDxaC9_sMp4ZAa9-V2y2-89" value="Sorry Not Valid" style="rounded=1;whiteSpace=wrap;html=1;" parent="1" vertex="1">
          <mxGeometry x="-510.5" y="885" width="68" height="35" as="geometry" />
        </mxCell>
        <mxCell id="hDxaC9_sMp4ZAa9-V2y2-228" style="edgeStyle=orthogonalEdgeStyle;rounded=0;orthogonalLoop=1;jettySize=auto;html=1;exitX=0.5;exitY=1;exitDx=0;exitDy=0;" parent="1" source="hDxaC9_sMp4ZAa9-V2y2-91" target="hDxaC9_sMp4ZAa9-V2y2-38" edge="1">
          <mxGeometry relative="1" as="geometry">
            <mxPoint x="-650" y="770" as="targetPoint" />
            <Array as="points">
              <mxPoint x="-606" y="600" />
              <mxPoint x="-590" y="600" />
              <mxPoint x="-590" y="770" />
            </Array>
          </mxGeometry>
        </mxCell>
        <mxCell id="hDxaC9_sMp4ZAa9-V2y2-91" value="Go to Cart" style="rounded=1;whiteSpace=wrap;html=1;" parent="1" vertex="1">
          <mxGeometry x="-651" y="400" width="91" height="30" as="geometry" />
        </mxCell>
        <mxCell id="hDxaC9_sMp4ZAa9-V2y2-230" style="edgeStyle=orthogonalEdgeStyle;rounded=0;orthogonalLoop=1;jettySize=auto;html=1;exitX=0.5;exitY=1;exitDx=0;exitDy=0;entryX=0.5;entryY=0;entryDx=0;entryDy=0;" parent="1" source="hDxaC9_sMp4ZAa9-V2y2-95" target="hDxaC9_sMp4ZAa9-V2y2-97" edge="1">
          <mxGeometry relative="1" as="geometry" />
        </mxCell>
        <mxCell id="hDxaC9_sMp4ZAa9-V2y2-95" value="Buy Back" style="rounded=1;whiteSpace=wrap;html=1;" parent="1" vertex="1">
          <mxGeometry x="-542.75" y="400" width="91" height="30" as="geometry" />
        </mxCell>
        <mxCell id="hDxaC9_sMp4ZAa9-V2y2-231" style="edgeStyle=orthogonalEdgeStyle;rounded=0;orthogonalLoop=1;jettySize=auto;html=1;exitX=0.5;exitY=1;exitDx=0;exitDy=0;entryX=0.5;entryY=0;entryDx=0;entryDy=0;" parent="1" source="hDxaC9_sMp4ZAa9-V2y2-97" target="hDxaC9_sMp4ZAa9-V2y2-101" edge="1">
          <mxGeometry relative="1" as="geometry" />
        </mxCell>
        <mxCell id="hDxaC9_sMp4ZAa9-V2y2-290" style="edgeStyle=orthogonalEdgeStyle;rounded=0;orthogonalLoop=1;jettySize=auto;html=1;exitX=1;exitY=0.5;exitDx=0;exitDy=0;" parent="1" source="hDxaC9_sMp4ZAa9-V2y2-97" edge="1">
          <mxGeometry relative="1" as="geometry">
            <mxPoint x="-355.25" y="510" as="targetPoint" />
            <mxPoint x="-442.5" y="465" as="sourcePoint" />
          </mxGeometry>
        </mxCell>
        <mxCell id="hDxaC9_sMp4ZAa9-V2y2-97" value="Buy Back" style="rhombus;whiteSpace=wrap;html=1;" parent="1" vertex="1">
          <mxGeometry x="-537.25" y="445" width="80" height="40" as="geometry" />
        </mxCell>
        <mxCell id="hDxaC9_sMp4ZAa9-V2y2-100" value="Buy" style="text;html=1;align=center;verticalAlign=middle;resizable=0;points=[];autosize=1;strokeColor=none;fillColor=none;" parent="1" vertex="1">
          <mxGeometry x="-484.5" y="470" width="40" height="30" as="geometry" />
        </mxCell>
        <mxCell id="hDxaC9_sMp4ZAa9-V2y2-235" style="edgeStyle=orthogonalEdgeStyle;rounded=0;orthogonalLoop=1;jettySize=auto;html=1;exitX=0.5;exitY=1;exitDx=0;exitDy=0;entryX=0.498;entryY=0.34;entryDx=0;entryDy=0;entryPerimeter=0;" parent="1" source="hDxaC9_sMp4ZAa9-V2y2-101" target="hDxaC9_sMp4ZAa9-V2y2-232" edge="1">
          <mxGeometry relative="1" as="geometry" />
        </mxCell>
        <mxCell id="hDxaC9_sMp4ZAa9-V2y2-101" value="Select&amp;nbsp;&lt;div&gt;Customization&lt;/div&gt;&lt;div&gt;Option&lt;/div&gt;" style="rounded=1;whiteSpace=wrap;html=1;" parent="1" vertex="1">
          <mxGeometry x="-550" y="500" width="105.5" height="50" as="geometry" />
        </mxCell>
        <mxCell id="hDxaC9_sMp4ZAa9-V2y2-102" value="Display&lt;div&gt;Customization&lt;/div&gt;" style="rounded=1;whiteSpace=wrap;html=1;" parent="1" vertex="1">
          <mxGeometry x="-582.25" y="580" width="91" height="30" as="geometry" />
        </mxCell>
        <mxCell id="hDxaC9_sMp4ZAa9-V2y2-103" value="Grand&lt;div&gt;Total&lt;/div&gt;" style="rounded=1;whiteSpace=wrap;html=1;" parent="1" vertex="1">
          <mxGeometry x="-481.5" y="580" width="69.25" height="30" as="geometry" />
        </mxCell>
        <mxCell id="hDxaC9_sMp4ZAa9-V2y2-104" value="Buy Price" style="rounded=1;whiteSpace=wrap;html=1;" parent="1" vertex="1">
          <mxGeometry x="-521" y="617.5" width="69.25" height="30" as="geometry" />
        </mxCell>
        <mxCell id="hDxaC9_sMp4ZAa9-V2y2-245" style="edgeStyle=orthogonalEdgeStyle;rounded=0;orthogonalLoop=1;jettySize=auto;html=1;exitX=0.5;exitY=1;exitDx=0;exitDy=0;entryX=0.5;entryY=0;entryDx=0;entryDy=0;" parent="1" source="hDxaC9_sMp4ZAa9-V2y2-105" target="hDxaC9_sMp4ZAa9-V2y2-106" edge="1">
          <mxGeometry relative="1" as="geometry" />
        </mxCell>
        <mxCell id="hDxaC9_sMp4ZAa9-V2y2-105" value="View Terms &amp;amp;&lt;div&gt;Condition&lt;/div&gt;" style="rounded=1;whiteSpace=wrap;html=1;" parent="1" vertex="1">
          <mxGeometry x="-550" y="685" width="91" height="30" as="geometry" />
        </mxCell>
        <mxCell id="hDxaC9_sMp4ZAa9-V2y2-246" style="edgeStyle=orthogonalEdgeStyle;rounded=0;orthogonalLoop=1;jettySize=auto;html=1;exitX=1;exitY=0.5;exitDx=0;exitDy=0;entryX=0;entryY=0.5;entryDx=0;entryDy=0;" parent="1" source="hDxaC9_sMp4ZAa9-V2y2-106" target="hDxaC9_sMp4ZAa9-V2y2-111" edge="1">
          <mxGeometry relative="1" as="geometry" />
        </mxCell>
        <mxCell id="hDxaC9_sMp4ZAa9-V2y2-106" value="Accept" style="rhombus;whiteSpace=wrap;html=1;" parent="1" vertex="1">
          <mxGeometry x="-543.25" y="730" width="76" height="30" as="geometry" />
        </mxCell>
        <mxCell id="hDxaC9_sMp4ZAa9-V2y2-107" value="No" style="text;html=1;align=center;verticalAlign=middle;resizable=0;points=[];autosize=1;strokeColor=none;fillColor=none;" parent="1" vertex="1">
          <mxGeometry x="-491.75" y="710" width="40" height="30" as="geometry" />
        </mxCell>
        <mxCell id="hDxaC9_sMp4ZAa9-V2y2-110" value="Yes" style="text;html=1;align=center;verticalAlign=middle;resizable=0;points=[];autosize=1;strokeColor=none;fillColor=none;" parent="1" vertex="1">
          <mxGeometry x="-496.5" y="750" width="40" height="30" as="geometry" />
        </mxCell>
        <mxCell id="hDxaC9_sMp4ZAa9-V2y2-111" value="Accept Terms &amp;amp; Condition" style="rounded=1;whiteSpace=wrap;html=1;" parent="1" vertex="1">
          <mxGeometry x="-451.75" y="730" width="91" height="30" as="geometry" />
        </mxCell>
        <mxCell id="hDxaC9_sMp4ZAa9-V2y2-113" value="Payment" style="rounded=1;whiteSpace=wrap;html=1;" parent="1" vertex="1">
          <mxGeometry x="-547.5" y="780" width="91" height="30" as="geometry" />
        </mxCell>
        <mxCell id="hDxaC9_sMp4ZAa9-V2y2-114" value="Account" style="rounded=1;whiteSpace=wrap;html=1;" parent="1" vertex="1">
          <mxGeometry x="-49" y="400" width="91" height="30" as="geometry" />
        </mxCell>
        <mxCell id="hDxaC9_sMp4ZAa9-V2y2-116" value="" style="shape=line;html=1;strokeWidth=6;strokeColor=#000000;" parent="1" vertex="1">
          <mxGeometry x="-254.5" y="465" width="510" height="10" as="geometry" />
        </mxCell>
        <mxCell id="hDxaC9_sMp4ZAa9-V2y2-250" style="edgeStyle=orthogonalEdgeStyle;rounded=0;orthogonalLoop=1;jettySize=auto;html=1;exitX=0.5;exitY=1;exitDx=0;exitDy=0;entryX=0.5;entryY=0;entryDx=0;entryDy=0;" parent="1" source="hDxaC9_sMp4ZAa9-V2y2-118" target="hDxaC9_sMp4ZAa9-V2y2-126" edge="1">
          <mxGeometry relative="1" as="geometry" />
        </mxCell>
        <mxCell id="hDxaC9_sMp4ZAa9-V2y2-118" value="View Profile" style="rounded=1;whiteSpace=wrap;html=1;" parent="1" vertex="1">
          <mxGeometry x="-230" y="495" width="91" height="30" as="geometry" />
        </mxCell>
        <mxCell id="hDxaC9_sMp4ZAa9-V2y2-256" style="edgeStyle=orthogonalEdgeStyle;rounded=0;orthogonalLoop=1;jettySize=auto;html=1;exitX=0.5;exitY=1;exitDx=0;exitDy=0;" parent="1" source="hDxaC9_sMp4ZAa9-V2y2-119" target="hDxaC9_sMp4ZAa9-V2y2-137" edge="1">
          <mxGeometry relative="1" as="geometry" />
        </mxCell>
        <mxCell id="hDxaC9_sMp4ZAa9-V2y2-119" value="Orders" style="rounded=1;whiteSpace=wrap;html=1;" parent="1" vertex="1">
          <mxGeometry x="-84.5" y="495" width="91" height="30" as="geometry" />
        </mxCell>
        <mxCell id="hDxaC9_sMp4ZAa9-V2y2-120" value="Voucher" style="rounded=1;whiteSpace=wrap;html=1;" parent="1" vertex="1">
          <mxGeometry x="35.5" y="495" width="91" height="30" as="geometry" />
        </mxCell>
        <mxCell id="hDxaC9_sMp4ZAa9-V2y2-316" style="edgeStyle=orthogonalEdgeStyle;rounded=0;orthogonalLoop=1;jettySize=auto;html=1;exitX=0.5;exitY=1;exitDx=0;exitDy=0;" parent="1" source="hDxaC9_sMp4ZAa9-V2y2-121" target="hDxaC9_sMp4ZAa9-V2y2-157" edge="1">
          <mxGeometry relative="1" as="geometry" />
        </mxCell>
        <mxCell id="hDxaC9_sMp4ZAa9-V2y2-121" value="Help Center" style="rounded=1;whiteSpace=wrap;html=1;" parent="1" vertex="1">
          <mxGeometry x="144.5" y="495" width="91" height="30" as="geometry" />
        </mxCell>
        <mxCell id="hDxaC9_sMp4ZAa9-V2y2-249" style="edgeStyle=orthogonalEdgeStyle;rounded=0;orthogonalLoop=1;jettySize=auto;html=1;exitX=1;exitY=0.5;exitDx=0;exitDy=0;entryX=1;entryY=0.5;entryDx=0;entryDy=0;" parent="1" source="hDxaC9_sMp4ZAa9-V2y2-126" target="hDxaC9_sMp4ZAa9-V2y2-118" edge="1">
          <mxGeometry relative="1" as="geometry">
            <mxPoint x="-122.31" y="510" as="targetPoint" />
            <Array as="points">
              <mxPoint x="-122.31" y="560" />
              <mxPoint x="-122.31" y="510" />
            </Array>
          </mxGeometry>
        </mxCell>
        <mxCell id="hDxaC9_sMp4ZAa9-V2y2-126" value="Edit" style="rhombus;whiteSpace=wrap;html=1;" parent="1" vertex="1">
          <mxGeometry x="-214.5" y="540" width="60" height="40" as="geometry" />
        </mxCell>
        <mxCell id="hDxaC9_sMp4ZAa9-V2y2-129" value="No" style="text;html=1;align=center;verticalAlign=middle;resizable=0;points=[];autosize=1;strokeColor=none;fillColor=none;" parent="1" vertex="1">
          <mxGeometry x="-176.81" y="530" width="40" height="30" as="geometry" />
        </mxCell>
        <mxCell id="hDxaC9_sMp4ZAa9-V2y2-252" style="edgeStyle=orthogonalEdgeStyle;rounded=0;orthogonalLoop=1;jettySize=auto;html=1;exitX=0.5;exitY=1;exitDx=0;exitDy=0;entryX=0.5;entryY=0;entryDx=0;entryDy=0;" parent="1" source="hDxaC9_sMp4ZAa9-V2y2-130" target="hDxaC9_sMp4ZAa9-V2y2-132" edge="1">
          <mxGeometry relative="1" as="geometry" />
        </mxCell>
        <mxCell id="hDxaC9_sMp4ZAa9-V2y2-130" value="Edit Profile" style="rounded=1;whiteSpace=wrap;html=1;" parent="1" vertex="1">
          <mxGeometry x="-230" y="595" width="91" height="30" as="geometry" />
        </mxCell>
        <mxCell id="hDxaC9_sMp4ZAa9-V2y2-132" value="Update Profile" style="rounded=1;whiteSpace=wrap;html=1;" parent="1" vertex="1">
          <mxGeometry x="-230" y="645" width="91" height="30" as="geometry" />
        </mxCell>
        <mxCell id="hDxaC9_sMp4ZAa9-V2y2-134" value="Update&lt;br&gt;&lt;div&gt;&lt;span style=&quot;background-color: initial;&quot;&gt;Successfully&lt;/span&gt;&amp;nbsp;&lt;/div&gt;" style="rounded=1;whiteSpace=wrap;html=1;" parent="1" vertex="1">
          <mxGeometry x="-227.81" y="690" width="91" height="30" as="geometry" />
        </mxCell>
        <mxCell id="hDxaC9_sMp4ZAa9-V2y2-136" value="Yes" style="text;html=1;align=center;verticalAlign=middle;resizable=0;points=[];autosize=1;strokeColor=none;fillColor=none;" parent="1" vertex="1">
          <mxGeometry x="-233.06" y="560" width="40" height="30" as="geometry" />
        </mxCell>
        <mxCell id="hDxaC9_sMp4ZAa9-V2y2-257" style="edgeStyle=orthogonalEdgeStyle;rounded=0;orthogonalLoop=1;jettySize=auto;html=1;exitX=0.5;exitY=1;exitDx=0;exitDy=0;entryX=0.5;entryY=0;entryDx=0;entryDy=0;" parent="1" source="hDxaC9_sMp4ZAa9-V2y2-137" target="hDxaC9_sMp4ZAa9-V2y2-139" edge="1">
          <mxGeometry relative="1" as="geometry" />
        </mxCell>
        <mxCell id="hDxaC9_sMp4ZAa9-V2y2-137" value="Display All&lt;div&gt;Orders&lt;/div&gt;" style="rounded=1;whiteSpace=wrap;html=1;" parent="1" vertex="1">
          <mxGeometry x="-84.5" y="555" width="91" height="30" as="geometry" />
        </mxCell>
        <mxCell id="hDxaC9_sMp4ZAa9-V2y2-138" style="edgeStyle=orthogonalEdgeStyle;rounded=0;orthogonalLoop=1;jettySize=auto;html=1;exitX=0;exitY=0.5;exitDx=0;exitDy=0;" parent="1" source="hDxaC9_sMp4ZAa9-V2y2-139" edge="1">
          <mxGeometry relative="1" as="geometry">
            <mxPoint x="-84.5" y="627.9090909090908" as="targetPoint" />
          </mxGeometry>
        </mxCell>
        <mxCell id="hDxaC9_sMp4ZAa9-V2y2-258" style="edgeStyle=orthogonalEdgeStyle;rounded=0;orthogonalLoop=1;jettySize=auto;html=1;exitX=0.5;exitY=1;exitDx=0;exitDy=0;entryX=0.5;entryY=0;entryDx=0;entryDy=0;" parent="1" source="hDxaC9_sMp4ZAa9-V2y2-139" target="hDxaC9_sMp4ZAa9-V2y2-141" edge="1">
          <mxGeometry relative="1" as="geometry" />
        </mxCell>
        <mxCell id="hDxaC9_sMp4ZAa9-V2y2-139" value="Click Product to&lt;div&gt;View Details&lt;/div&gt;" style="rounded=1;whiteSpace=wrap;html=1;" parent="1" vertex="1">
          <mxGeometry x="-94" y="610" width="110" height="35" as="geometry" />
        </mxCell>
        <mxCell id="hDxaC9_sMp4ZAa9-V2y2-261" style="edgeStyle=orthogonalEdgeStyle;rounded=0;orthogonalLoop=1;jettySize=auto;html=1;exitX=1;exitY=0.5;exitDx=0;exitDy=0;entryX=1;entryY=0.5;entryDx=0;entryDy=0;" parent="1" source="hDxaC9_sMp4ZAa9-V2y2-141" target="hDxaC9_sMp4ZAa9-V2y2-139" edge="1">
          <mxGeometry relative="1" as="geometry">
            <mxPoint x="27.689999999999998" y="620" as="targetPoint" />
            <Array as="points">
              <mxPoint x="27.689999999999998" y="690" />
              <mxPoint x="27.689999999999998" y="628" />
            </Array>
          </mxGeometry>
        </mxCell>
        <mxCell id="hDxaC9_sMp4ZAa9-V2y2-141" value="Details" style="rhombus;whiteSpace=wrap;html=1;" parent="1" vertex="1">
          <mxGeometry x="-71.25" y="675" width="64.5" height="30" as="geometry" />
        </mxCell>
        <mxCell id="hDxaC9_sMp4ZAa9-V2y2-142" value="No" style="text;html=1;align=center;verticalAlign=middle;resizable=0;points=[];autosize=1;strokeColor=none;fillColor=none;" parent="1" vertex="1">
          <mxGeometry x="-19.5" y="655" width="40" height="30" as="geometry" />
        </mxCell>
        <mxCell id="hDxaC9_sMp4ZAa9-V2y2-255" style="edgeStyle=orthogonalEdgeStyle;rounded=0;orthogonalLoop=1;jettySize=auto;html=1;exitX=0;exitY=0.5;exitDx=0;exitDy=0;entryX=0;entryY=0.5;entryDx=0;entryDy=0;" parent="1" source="hDxaC9_sMp4ZAa9-V2y2-145" target="hDxaC9_sMp4ZAa9-V2y2-139" edge="1">
          <mxGeometry relative="1" as="geometry">
            <mxPoint x="-112.31" y="630" as="targetPoint" />
          </mxGeometry>
        </mxCell>
        <mxCell id="hDxaC9_sMp4ZAa9-V2y2-265" style="edgeStyle=orthogonalEdgeStyle;rounded=0;orthogonalLoop=1;jettySize=auto;html=1;exitX=0.5;exitY=1;exitDx=0;exitDy=0;entryX=0.5;entryY=0;entryDx=0;entryDy=0;" parent="1" source="hDxaC9_sMp4ZAa9-V2y2-145" target="hDxaC9_sMp4ZAa9-V2y2-149" edge="1">
          <mxGeometry relative="1" as="geometry" />
        </mxCell>
        <mxCell id="hDxaC9_sMp4ZAa9-V2y2-145" value="Review" style="rhombus;whiteSpace=wrap;html=1;" parent="1" vertex="1">
          <mxGeometry x="-70.75" y="725" width="64.5" height="30" as="geometry" />
        </mxCell>
        <mxCell id="hDxaC9_sMp4ZAa9-V2y2-146" value="No" style="text;html=1;align=center;verticalAlign=middle;resizable=0;points=[];autosize=1;strokeColor=none;fillColor=none;" parent="1" vertex="1">
          <mxGeometry x="-96.81" y="710" width="40" height="30" as="geometry" />
        </mxCell>
        <mxCell id="hDxaC9_sMp4ZAa9-V2y2-149" value="Give Review" style="rounded=1;whiteSpace=wrap;html=1;" parent="1" vertex="1">
          <mxGeometry x="-84" y="775" width="91" height="30" as="geometry" />
        </mxCell>
        <mxCell id="hDxaC9_sMp4ZAa9-V2y2-150" value="Thank You&amp;nbsp;&lt;div&gt;For Your Review&lt;/div&gt;" style="rounded=1;whiteSpace=wrap;html=1;" parent="1" vertex="1">
          <mxGeometry x="-88.25" y="825" width="99.5" height="40" as="geometry" />
        </mxCell>
        <mxCell id="hDxaC9_sMp4ZAa9-V2y2-151" value="" style="endArrow=open;html=1;rounded=0;align=center;verticalAlign=top;endFill=0;labelBackgroundColor=none;endSize=6;exitX=0.5;exitY=1;exitDx=0;exitDy=0;entryX=0.5;entryY=0;entryDx=0;entryDy=0;" parent="1" source="hDxaC9_sMp4ZAa9-V2y2-149" target="hDxaC9_sMp4ZAa9-V2y2-150" edge="1">
          <mxGeometry relative="1" as="geometry">
            <mxPoint x="-38" y="810" as="sourcePoint" />
            <mxPoint x="-39" y="830" as="targetPoint" />
          </mxGeometry>
        </mxCell>
        <mxCell id="hDxaC9_sMp4ZAa9-V2y2-314" style="edgeStyle=orthogonalEdgeStyle;rounded=0;orthogonalLoop=1;jettySize=auto;html=1;exitX=0.5;exitY=1;exitDx=0;exitDy=0;entryX=0.5;entryY=0;entryDx=0;entryDy=0;" parent="1" source="hDxaC9_sMp4ZAa9-V2y2-153" target="hDxaC9_sMp4ZAa9-V2y2-154" edge="1">
          <mxGeometry relative="1" as="geometry" />
        </mxCell>
        <mxCell id="hDxaC9_sMp4ZAa9-V2y2-153" value="Display All&lt;div&gt;Orders&lt;/div&gt;" style="rounded=1;whiteSpace=wrap;html=1;" parent="1" vertex="1">
          <mxGeometry x="35.5" y="560" width="100" height="30" as="geometry" />
        </mxCell>
        <mxCell id="hDxaC9_sMp4ZAa9-V2y2-154" value="Display Expiry Date" style="rounded=1;whiteSpace=wrap;html=1;" parent="1" vertex="1">
          <mxGeometry x="42" y="615" width="93.5" height="30" as="geometry" />
        </mxCell>
        <mxCell id="hDxaC9_sMp4ZAa9-V2y2-317" style="edgeStyle=orthogonalEdgeStyle;rounded=0;orthogonalLoop=1;jettySize=auto;html=1;exitX=0.5;exitY=1;exitDx=0;exitDy=0;entryX=0.5;entryY=0;entryDx=0;entryDy=0;" parent="1" source="hDxaC9_sMp4ZAa9-V2y2-157" target="hDxaC9_sMp4ZAa9-V2y2-158" edge="1">
          <mxGeometry relative="1" as="geometry" />
        </mxCell>
        <mxCell id="hDxaC9_sMp4ZAa9-V2y2-157" value="Display Form" style="rounded=1;whiteSpace=wrap;html=1;" parent="1" vertex="1">
          <mxGeometry x="140" y="555" width="100" height="30" as="geometry" />
        </mxCell>
        <mxCell id="hDxaC9_sMp4ZAa9-V2y2-318" style="edgeStyle=orthogonalEdgeStyle;rounded=0;orthogonalLoop=1;jettySize=auto;html=1;exitX=0.5;exitY=1;exitDx=0;exitDy=0;entryX=0.5;entryY=0;entryDx=0;entryDy=0;" parent="1" source="hDxaC9_sMp4ZAa9-V2y2-158" target="hDxaC9_sMp4ZAa9-V2y2-161" edge="1">
          <mxGeometry relative="1" as="geometry" />
        </mxCell>
        <mxCell id="hDxaC9_sMp4ZAa9-V2y2-158" value="Enter details&lt;div&gt;Of Complains / issue&lt;/div&gt;" style="rounded=1;whiteSpace=wrap;html=1;" parent="1" vertex="1">
          <mxGeometry x="147.25" y="615" width="94.5" height="50" as="geometry" />
        </mxCell>
        <mxCell id="hDxaC9_sMp4ZAa9-V2y2-161" value="Submit" style="rounded=1;whiteSpace=wrap;html=1;" parent="1" vertex="1">
          <mxGeometry x="143.5" y="695" width="101" height="35" as="geometry" />
        </mxCell>
        <mxCell id="hDxaC9_sMp4ZAa9-V2y2-322" style="edgeStyle=orthogonalEdgeStyle;rounded=0;orthogonalLoop=1;jettySize=auto;html=1;exitX=0.5;exitY=1;exitDx=0;exitDy=0;entryX=0.5;entryY=0;entryDx=0;entryDy=0;" parent="1" source="hDxaC9_sMp4ZAa9-V2y2-164" target="hDxaC9_sMp4ZAa9-V2y2-166" edge="1">
          <mxGeometry relative="1" as="geometry" />
        </mxCell>
        <mxCell id="hDxaC9_sMp4ZAa9-V2y2-164" value="Reselling" style="rounded=1;whiteSpace=wrap;html=1;" parent="1" vertex="1">
          <mxGeometry x="266.25" y="400" width="91" height="30" as="geometry" />
        </mxCell>
        <mxCell id="hDxaC9_sMp4ZAa9-V2y2-323" style="edgeStyle=orthogonalEdgeStyle;rounded=0;orthogonalLoop=1;jettySize=auto;html=1;exitX=0.5;exitY=1;exitDx=0;exitDy=0;entryX=0.5;entryY=0;entryDx=0;entryDy=0;" parent="1" source="hDxaC9_sMp4ZAa9-V2y2-166" target="hDxaC9_sMp4ZAa9-V2y2-168" edge="1">
          <mxGeometry relative="1" as="geometry" />
        </mxCell>
        <mxCell id="hDxaC9_sMp4ZAa9-V2y2-166" value="Display Product&lt;div&gt;That are on sale to Buy&lt;/div&gt;" style="rounded=1;whiteSpace=wrap;html=1;" parent="1" vertex="1">
          <mxGeometry x="260" y="455" width="104.5" height="50" as="geometry" />
        </mxCell>
        <mxCell id="hDxaC9_sMp4ZAa9-V2y2-168" value="Display Form" style="rounded=1;whiteSpace=wrap;html=1;" parent="1" vertex="1">
          <mxGeometry x="261.75" y="525" width="100" height="30" as="geometry" />
        </mxCell>
        <mxCell id="hDxaC9_sMp4ZAa9-V2y2-326" style="edgeStyle=orthogonalEdgeStyle;rounded=0;orthogonalLoop=1;jettySize=auto;html=1;exitX=0.5;exitY=1;exitDx=0;exitDy=0;entryX=0.5;entryY=0;entryDx=0;entryDy=0;" parent="1" source="hDxaC9_sMp4ZAa9-V2y2-170" target="hDxaC9_sMp4ZAa9-V2y2-174" edge="1">
          <mxGeometry relative="1" as="geometry" />
        </mxCell>
        <mxCell id="hDxaC9_sMp4ZAa9-V2y2-327" style="edgeStyle=orthogonalEdgeStyle;rounded=0;orthogonalLoop=1;jettySize=auto;html=1;exitX=0;exitY=0.5;exitDx=0;exitDy=0;entryX=0;entryY=0.5;entryDx=0;entryDy=0;" parent="1" source="hDxaC9_sMp4ZAa9-V2y2-170" target="hDxaC9_sMp4ZAa9-V2y2-168" edge="1">
          <mxGeometry relative="1" as="geometry">
            <mxPoint x="250" y="530" as="targetPoint" />
            <Array as="points">
              <mxPoint x="250" y="605" />
              <mxPoint x="250" y="540" />
            </Array>
          </mxGeometry>
        </mxCell>
        <mxCell id="hDxaC9_sMp4ZAa9-V2y2-170" value="Wants to Buy" style="rhombus;whiteSpace=wrap;html=1;" parent="1" vertex="1">
          <mxGeometry x="266.75" y="585" width="90" height="40" as="geometry" />
        </mxCell>
        <mxCell id="hDxaC9_sMp4ZAa9-V2y2-171" value="No" style="text;html=1;align=center;verticalAlign=middle;resizable=0;points=[];autosize=1;strokeColor=none;fillColor=none;" parent="1" vertex="1">
          <mxGeometry x="261.75" y="560" width="40" height="30" as="geometry" />
        </mxCell>
        <mxCell id="hDxaC9_sMp4ZAa9-V2y2-174" value="Click Buy" style="rounded=1;whiteSpace=wrap;html=1;" parent="1" vertex="1">
          <mxGeometry x="266.25" y="645" width="91" height="30" as="geometry" />
        </mxCell>
        <mxCell id="hDxaC9_sMp4ZAa9-V2y2-176" value="Yes" style="text;html=1;align=center;verticalAlign=middle;resizable=0;points=[];autosize=1;strokeColor=none;fillColor=none;" parent="1" vertex="1">
          <mxGeometry x="-34.5" y="705" width="40" height="30" as="geometry" />
        </mxCell>
        <mxCell id="hDxaC9_sMp4ZAa9-V2y2-177" value="Yes" style="text;html=1;align=center;verticalAlign=middle;resizable=0;points=[];autosize=1;strokeColor=none;fillColor=none;" parent="1" vertex="1">
          <mxGeometry x="-34.5" y="745" width="40" height="30" as="geometry" />
        </mxCell>
        <mxCell id="hDxaC9_sMp4ZAa9-V2y2-178" value="Yes" style="text;html=1;align=center;verticalAlign=middle;resizable=0;points=[];autosize=1;strokeColor=none;fillColor=none;" parent="1" vertex="1">
          <mxGeometry x="317.25" y="615" width="40" height="30" as="geometry" />
        </mxCell>
        <mxCell id="hDxaC9_sMp4ZAa9-V2y2-179" value="Payment&amp;nbsp;" style="rounded=1;whiteSpace=wrap;html=1;" parent="1" vertex="1">
          <mxGeometry x="266.25" y="715" width="91" height="30" as="geometry" />
        </mxCell>
        <mxCell id="hDxaC9_sMp4ZAa9-V2y2-180" value="" style="endArrow=open;html=1;rounded=0;align=center;verticalAlign=top;endFill=0;labelBackgroundColor=none;endSize=6;exitX=0.5;exitY=1;exitDx=0;exitDy=0;entryX=0.5;entryY=0;entryDx=0;entryDy=0;" parent="1" source="hDxaC9_sMp4ZAa9-V2y2-174" target="hDxaC9_sMp4ZAa9-V2y2-179" edge="1">
          <mxGeometry relative="1" as="geometry">
            <mxPoint x="311.93" y="695" as="sourcePoint" />
            <mxPoint x="311.93" y="725" as="targetPoint" />
          </mxGeometry>
        </mxCell>
        <mxCell id="hDxaC9_sMp4ZAa9-V2y2-331" value="" style="edgeStyle=orthogonalEdgeStyle;rounded=0;orthogonalLoop=1;jettySize=auto;html=1;" parent="1" edge="1">
          <mxGeometry relative="1" as="geometry">
            <mxPoint x="410.06666666666706" y="430" as="sourcePoint" />
            <mxPoint x="410.06666666666706" y="445" as="targetPoint" />
          </mxGeometry>
        </mxCell>
        <mxCell id="hDxaC9_sMp4ZAa9-V2y2-181" value="FAQ" style="rounded=1;whiteSpace=wrap;html=1;" parent="1" vertex="1">
          <mxGeometry x="384.5" y="400" width="91" height="30" as="geometry" />
        </mxCell>
        <mxCell id="hDxaC9_sMp4ZAa9-V2y2-182" value="Dispaly All&amp;nbsp;&lt;div&gt;Question &amp;amp; Answers&lt;/div&gt;" style="rounded=1;whiteSpace=wrap;html=1;" parent="1" vertex="1">
          <mxGeometry x="380" y="445" width="100" height="50" as="geometry" />
        </mxCell>
        <mxCell id="hDxaC9_sMp4ZAa9-V2y2-183" value="" style="endArrow=open;html=1;rounded=0;align=center;verticalAlign=top;endFill=0;labelBackgroundColor=none;endSize=6;entryX=0.5;entryY=0;entryDx=0;entryDy=0;exitX=0.5;exitY=1;exitDx=0;exitDy=0;" parent="1" edge="1">
          <mxGeometry relative="1" as="geometry">
            <mxPoint x="410" y="430" as="sourcePoint" />
            <mxPoint x="410" y="445" as="targetPoint" />
          </mxGeometry>
        </mxCell>
        <mxCell id="hDxaC9_sMp4ZAa9-V2y2-335" style="edgeStyle=orthogonalEdgeStyle;rounded=0;orthogonalLoop=1;jettySize=auto;html=1;exitX=0.5;exitY=1;exitDx=0;exitDy=0;entryX=0.5;entryY=0;entryDx=0;entryDy=0;" parent="1" source="hDxaC9_sMp4ZAa9-V2y2-185" target="hDxaC9_sMp4ZAa9-V2y2-189" edge="1">
          <mxGeometry relative="1" as="geometry" />
        </mxCell>
        <mxCell id="hDxaC9_sMp4ZAa9-V2y2-185" value="Use Spin To Win&lt;div&gt;Option&lt;/div&gt;" style="rounded=1;whiteSpace=wrap;html=1;" parent="1" vertex="1">
          <mxGeometry x="490.00000000000006" y="445" width="100" height="40" as="geometry" />
        </mxCell>
        <mxCell id="hDxaC9_sMp4ZAa9-V2y2-423" style="edgeStyle=orthogonalEdgeStyle;rounded=0;orthogonalLoop=1;jettySize=auto;html=1;exitX=0.5;exitY=1;exitDx=0;exitDy=0;entryX=0.5;entryY=0;entryDx=0;entryDy=0;" parent="1" source="hDxaC9_sMp4ZAa9-V2y2-186" target="hDxaC9_sMp4ZAa9-V2y2-185" edge="1">
          <mxGeometry relative="1" as="geometry" />
        </mxCell>
        <mxCell id="hDxaC9_sMp4ZAa9-V2y2-186" value="Spin To Win&amp;nbsp;" style="rounded=1;whiteSpace=wrap;html=1;" parent="1" vertex="1">
          <mxGeometry x="494.5" y="400" width="91" height="30" as="geometry" />
        </mxCell>
        <mxCell id="hDxaC9_sMp4ZAa9-V2y2-189" value="Get Coin ?" style="rhombus;whiteSpace=wrap;html=1;" parent="1" vertex="1">
          <mxGeometry x="498.8700000000001" y="505" width="82.25" height="50" as="geometry" />
        </mxCell>
        <mxCell id="hDxaC9_sMp4ZAa9-V2y2-190" value="No" style="text;html=1;align=center;verticalAlign=middle;resizable=0;points=[];autosize=1;strokeColor=none;fillColor=none;" parent="1" vertex="1">
          <mxGeometry x="560" y="495" width="40" height="30" as="geometry" />
        </mxCell>
        <mxCell id="hDxaC9_sMp4ZAa9-V2y2-192" value="Yes" style="text;html=1;align=center;verticalAlign=middle;resizable=0;points=[];autosize=1;strokeColor=none;fillColor=none;" parent="1" vertex="1">
          <mxGeometry x="455.50000000000006" y="505" width="40" height="30" as="geometry" />
        </mxCell>
        <mxCell id="hDxaC9_sMp4ZAa9-V2y2-336" style="edgeStyle=orthogonalEdgeStyle;rounded=0;orthogonalLoop=1;jettySize=auto;html=1;exitX=0.5;exitY=1;exitDx=0;exitDy=0;entryX=0.5;entryY=0;entryDx=0;entryDy=0;" parent="1" target="hDxaC9_sMp4ZAa9-V2y2-194" edge="1">
          <mxGeometry relative="1" as="geometry">
            <mxPoint x="462.5" y="620" as="sourcePoint" />
          </mxGeometry>
        </mxCell>
        <mxCell id="hDxaC9_sMp4ZAa9-V2y2-193" value="&lt;font style=&quot;font-size: 12px;&quot;&gt;Adding Coin To The Profile &amp;amp; SpinToWin&lt;/font&gt;" style="rounded=1;whiteSpace=wrap;html=1;" parent="1" vertex="1">
          <mxGeometry x="425" y="560" width="115" height="60" as="geometry" />
        </mxCell>
        <mxCell id="hDxaC9_sMp4ZAa9-V2y2-194" value="Close the Option&amp;nbsp;" style="rounded=1;whiteSpace=wrap;html=1;" parent="1" vertex="1">
          <mxGeometry x="420" y="650" width="130" height="35" as="geometry" />
        </mxCell>
        <mxCell id="hDxaC9_sMp4ZAa9-V2y2-198" value="Sorry better&lt;div&gt;Luck Next Time&lt;/div&gt;" style="rounded=1;whiteSpace=wrap;html=1;" parent="1" vertex="1">
          <mxGeometry x="570" y="565" width="80" height="55" as="geometry" />
        </mxCell>
        <mxCell id="hDxaC9_sMp4ZAa9-V2y2-207" style="edgeStyle=orthogonalEdgeStyle;rounded=0;orthogonalLoop=1;jettySize=auto;html=1;exitX=0.5;exitY=1;exitDx=0;exitDy=0;entryX=0.409;entryY=0.272;entryDx=0;entryDy=0;entryPerimeter=0;" parent="1" source="hDxaC9_sMp4ZAa9-V2y2-43" edge="1">
          <mxGeometry relative="1" as="geometry">
            <mxPoint x="-730.47" y="532.72" as="targetPoint" />
          </mxGeometry>
        </mxCell>
        <mxCell id="hDxaC9_sMp4ZAa9-V2y2-215" style="edgeStyle=orthogonalEdgeStyle;rounded=0;orthogonalLoop=1;jettySize=auto;html=1;exitX=0.5;exitY=1;exitDx=0;exitDy=0;entryX=0.5;entryY=0;entryDx=0;entryDy=0;" parent="1" edge="1">
          <mxGeometry relative="1" as="geometry">
            <mxPoint x="-724.76" y="380" as="sourcePoint" />
            <mxPoint x="-724.76" y="400" as="targetPoint" />
          </mxGeometry>
        </mxCell>
        <mxCell id="hDxaC9_sMp4ZAa9-V2y2-223" style="edgeStyle=orthogonalEdgeStyle;rounded=0;orthogonalLoop=1;jettySize=auto;html=1;exitX=0.5;exitY=1;exitDx=0;exitDy=0;entryX=0.437;entryY=0.167;entryDx=0;entryDy=0;entryPerimeter=0;" parent="1" target="hDxaC9_sMp4ZAa9-V2y2-63" edge="1">
          <mxGeometry relative="1" as="geometry">
            <mxPoint x="-734.5" y="870" as="sourcePoint" />
          </mxGeometry>
        </mxCell>
        <mxCell id="hDxaC9_sMp4ZAa9-V2y2-226" style="edgeStyle=orthogonalEdgeStyle;rounded=0;orthogonalLoop=1;jettySize=auto;html=1;exitX=0.5;exitY=1;exitDx=0;exitDy=0;entryX=0.487;entryY=0.012;entryDx=0;entryDy=0;entryPerimeter=0;" parent="1" source="hDxaC9_sMp4ZAa9-V2y2-39" target="hDxaC9_sMp4ZAa9-V2y2-41" edge="1">
          <mxGeometry relative="1" as="geometry" />
        </mxCell>
        <mxCell id="hDxaC9_sMp4ZAa9-V2y2-227" style="edgeStyle=orthogonalEdgeStyle;rounded=0;orthogonalLoop=1;jettySize=auto;html=1;exitX=0.5;exitY=1;exitDx=0;exitDy=0;entryX=0.5;entryY=0;entryDx=0;entryDy=0;" parent="1" edge="1">
          <mxGeometry relative="1" as="geometry">
            <mxPoint x="-605.9" y="380" as="sourcePoint" />
            <mxPoint x="-605.9" y="400" as="targetPoint" />
          </mxGeometry>
        </mxCell>
        <mxCell id="hDxaC9_sMp4ZAa9-V2y2-229" style="edgeStyle=orthogonalEdgeStyle;rounded=0;orthogonalLoop=1;jettySize=auto;html=1;exitX=0.5;exitY=1;exitDx=0;exitDy=0;entryX=0.5;entryY=0;entryDx=0;entryDy=0;" parent="1" edge="1">
          <mxGeometry relative="1" as="geometry">
            <mxPoint x="-497.25" y="380" as="sourcePoint" />
            <mxPoint x="-497.25" y="400" as="targetPoint" />
          </mxGeometry>
        </mxCell>
        <mxCell id="hDxaC9_sMp4ZAa9-V2y2-232" value="" style="shape=line;html=1;strokeWidth=6;strokeColor=#000000;" parent="1" vertex="1">
          <mxGeometry x="-582.25" y="560" width="170" height="10" as="geometry" />
        </mxCell>
        <mxCell id="hDxaC9_sMp4ZAa9-V2y2-236" style="edgeStyle=orthogonalEdgeStyle;rounded=0;orthogonalLoop=1;jettySize=auto;html=1;exitX=0.25;exitY=0.5;exitDx=0;exitDy=0;exitPerimeter=0;entryX=0.398;entryY=-0.009;entryDx=0;entryDy=0;entryPerimeter=0;" parent="1" source="hDxaC9_sMp4ZAa9-V2y2-232" target="hDxaC9_sMp4ZAa9-V2y2-102" edge="1">
          <mxGeometry relative="1" as="geometry" />
        </mxCell>
        <mxCell id="hDxaC9_sMp4ZAa9-V2y2-237" style="edgeStyle=orthogonalEdgeStyle;rounded=0;orthogonalLoop=1;jettySize=auto;html=1;exitX=0.75;exitY=0.5;exitDx=0;exitDy=0;exitPerimeter=0;entryX=0.392;entryY=0.011;entryDx=0;entryDy=0;entryPerimeter=0;" parent="1" source="hDxaC9_sMp4ZAa9-V2y2-232" target="hDxaC9_sMp4ZAa9-V2y2-103" edge="1">
          <mxGeometry relative="1" as="geometry" />
        </mxCell>
        <mxCell id="hDxaC9_sMp4ZAa9-V2y2-238" style="edgeStyle=orthogonalEdgeStyle;rounded=0;orthogonalLoop=1;jettySize=auto;html=1;exitX=0.75;exitY=0.5;exitDx=0;exitDy=0;exitPerimeter=0;entryX=0.5;entryY=0;entryDx=0;entryDy=0;" parent="1" target="hDxaC9_sMp4ZAa9-V2y2-104" edge="1">
          <mxGeometry relative="1" as="geometry">
            <mxPoint x="-486.87" y="567.5" as="sourcePoint" />
            <mxPoint x="-485.87" y="582.5" as="targetPoint" />
          </mxGeometry>
        </mxCell>
        <mxCell id="hDxaC9_sMp4ZAa9-V2y2-239" value="" style="shape=line;html=1;strokeWidth=6;strokeColor=#000000;" parent="1" vertex="1">
          <mxGeometry x="-587" y="660" width="170" height="10" as="geometry" />
        </mxCell>
        <mxCell id="hDxaC9_sMp4ZAa9-V2y2-240" style="edgeStyle=orthogonalEdgeStyle;rounded=0;orthogonalLoop=1;jettySize=auto;html=1;exitX=0.5;exitY=1;exitDx=0;exitDy=0;entryX=0.294;entryY=0;entryDx=0;entryDy=0;entryPerimeter=0;" parent="1" source="hDxaC9_sMp4ZAa9-V2y2-102" target="hDxaC9_sMp4ZAa9-V2y2-239" edge="1">
          <mxGeometry relative="1" as="geometry" />
        </mxCell>
        <mxCell id="hDxaC9_sMp4ZAa9-V2y2-241" style="edgeStyle=orthogonalEdgeStyle;rounded=0;orthogonalLoop=1;jettySize=auto;html=1;exitX=0.5;exitY=1;exitDx=0;exitDy=0;entryX=0.573;entryY=0.167;entryDx=0;entryDy=0;entryPerimeter=0;" parent="1" source="hDxaC9_sMp4ZAa9-V2y2-104" target="hDxaC9_sMp4ZAa9-V2y2-239" edge="1">
          <mxGeometry relative="1" as="geometry" />
        </mxCell>
        <mxCell id="hDxaC9_sMp4ZAa9-V2y2-242" style="edgeStyle=orthogonalEdgeStyle;rounded=0;orthogonalLoop=1;jettySize=auto;html=1;exitX=0.5;exitY=1;exitDx=0;exitDy=0;entryX=0.827;entryY=0.367;entryDx=0;entryDy=0;entryPerimeter=0;" parent="1" source="hDxaC9_sMp4ZAa9-V2y2-103" target="hDxaC9_sMp4ZAa9-V2y2-239" edge="1">
          <mxGeometry relative="1" as="geometry" />
        </mxCell>
        <mxCell id="hDxaC9_sMp4ZAa9-V2y2-243" style="edgeStyle=orthogonalEdgeStyle;rounded=0;orthogonalLoop=1;jettySize=auto;html=1;exitX=0.5;exitY=1;exitDx=0;exitDy=0;entryX=0.468;entryY=0.058;entryDx=0;entryDy=0;entryPerimeter=0;" parent="1" target="hDxaC9_sMp4ZAa9-V2y2-105" edge="1">
          <mxGeometry relative="1" as="geometry">
            <mxPoint x="-505.52" y="665" as="sourcePoint" />
            <mxPoint x="-505.52" y="695" as="targetPoint" />
          </mxGeometry>
        </mxCell>
        <mxCell id="hDxaC9_sMp4ZAa9-V2y2-247" style="edgeStyle=orthogonalEdgeStyle;rounded=0;orthogonalLoop=1;jettySize=auto;html=1;exitX=0.5;exitY=1;exitDx=0;exitDy=0;entryX=0.45;entryY=0.058;entryDx=0;entryDy=0;entryPerimeter=0;" parent="1" source="hDxaC9_sMp4ZAa9-V2y2-106" target="hDxaC9_sMp4ZAa9-V2y2-113" edge="1">
          <mxGeometry relative="1" as="geometry" />
        </mxCell>
        <mxCell id="hDxaC9_sMp4ZAa9-V2y2-248" style="edgeStyle=orthogonalEdgeStyle;rounded=0;orthogonalLoop=1;jettySize=auto;html=1;exitX=0.25;exitY=0.5;exitDx=0;exitDy=0;exitPerimeter=0;entryX=0.5;entryY=0;entryDx=0;entryDy=0;" parent="1" source="hDxaC9_sMp4ZAa9-V2y2-116" target="hDxaC9_sMp4ZAa9-V2y2-118" edge="1">
          <mxGeometry relative="1" as="geometry">
            <Array as="points">
              <mxPoint x="-182.31" y="470" />
              <mxPoint x="-182.31" y="472" />
              <mxPoint x="-184.31" y="472" />
            </Array>
          </mxGeometry>
        </mxCell>
        <mxCell id="hDxaC9_sMp4ZAa9-V2y2-251" style="edgeStyle=orthogonalEdgeStyle;rounded=0;orthogonalLoop=1;jettySize=auto;html=1;exitX=0.5;exitY=1;exitDx=0;exitDy=0;entryX=0.488;entryY=-0.05;entryDx=0;entryDy=0;entryPerimeter=0;" parent="1" source="hDxaC9_sMp4ZAa9-V2y2-126" target="hDxaC9_sMp4ZAa9-V2y2-130" edge="1">
          <mxGeometry relative="1" as="geometry" />
        </mxCell>
        <mxCell id="hDxaC9_sMp4ZAa9-V2y2-253" style="edgeStyle=orthogonalEdgeStyle;rounded=0;orthogonalLoop=1;jettySize=auto;html=1;exitX=0.5;exitY=1;exitDx=0;exitDy=0;entryX=0.435;entryY=0.053;entryDx=0;entryDy=0;entryPerimeter=0;" parent="1" source="hDxaC9_sMp4ZAa9-V2y2-132" target="hDxaC9_sMp4ZAa9-V2y2-134" edge="1">
          <mxGeometry relative="1" as="geometry" />
        </mxCell>
        <mxCell id="hDxaC9_sMp4ZAa9-V2y2-254" style="edgeStyle=orthogonalEdgeStyle;rounded=0;orthogonalLoop=1;jettySize=auto;html=1;exitX=0.25;exitY=0.5;exitDx=0;exitDy=0;exitPerimeter=0;entryX=0.5;entryY=0;entryDx=0;entryDy=0;" parent="1" edge="1">
          <mxGeometry relative="1" as="geometry">
            <mxPoint x="16" y="470" as="sourcePoint" />
            <mxPoint x="-41" y="495" as="targetPoint" />
            <Array as="points">
              <mxPoint x="-39" y="470" />
              <mxPoint x="-39" y="472" />
              <mxPoint x="-41" y="472" />
            </Array>
          </mxGeometry>
        </mxCell>
        <mxCell id="hDxaC9_sMp4ZAa9-V2y2-260" style="edgeStyle=orthogonalEdgeStyle;rounded=0;orthogonalLoop=1;jettySize=auto;html=1;exitX=0.5;exitY=1;exitDx=0;exitDy=0;entryX=-0.051;entryY=0.762;entryDx=0;entryDy=0;entryPerimeter=0;" parent="1" source="hDxaC9_sMp4ZAa9-V2y2-141" target="hDxaC9_sMp4ZAa9-V2y2-176" edge="1">
          <mxGeometry relative="1" as="geometry" />
        </mxCell>
        <mxCell id="hDxaC9_sMp4ZAa9-V2y2-267" style="edgeStyle=orthogonalEdgeStyle;rounded=0;orthogonalLoop=1;jettySize=auto;html=1;exitX=0.25;exitY=0.5;exitDx=0;exitDy=0;exitPerimeter=0;entryX=0.5;entryY=0;entryDx=0;entryDy=0;" parent="1" edge="1">
          <mxGeometry relative="1" as="geometry">
            <mxPoint x="140" y="470" as="sourcePoint" />
            <mxPoint x="83" y="495" as="targetPoint" />
            <Array as="points">
              <mxPoint x="85" y="470" />
              <mxPoint x="85" y="472" />
              <mxPoint x="83" y="472" />
            </Array>
          </mxGeometry>
        </mxCell>
        <mxCell id="hDxaC9_sMp4ZAa9-V2y2-269" style="edgeStyle=orthogonalEdgeStyle;rounded=0;orthogonalLoop=1;jettySize=auto;html=1;exitX=0.25;exitY=0.5;exitDx=0;exitDy=0;exitPerimeter=0;entryX=0.336;entryY=0.1;entryDx=0;entryDy=0;entryPerimeter=0;" parent="1" source="hDxaC9_sMp4ZAa9-V2y2-63" target="hDxaC9_sMp4ZAa9-V2y2-66" edge="1">
          <mxGeometry relative="1" as="geometry" />
        </mxCell>
        <mxCell id="hDxaC9_sMp4ZAa9-V2y2-271" style="edgeStyle=orthogonalEdgeStyle;rounded=0;orthogonalLoop=1;jettySize=auto;html=1;exitX=0.75;exitY=0.5;exitDx=0;exitDy=0;exitPerimeter=0;entryX=0.628;entryY=-0.1;entryDx=0;entryDy=0;entryPerimeter=0;" parent="1" source="hDxaC9_sMp4ZAa9-V2y2-63" target="hDxaC9_sMp4ZAa9-V2y2-67" edge="1">
          <mxGeometry relative="1" as="geometry" />
        </mxCell>
        <mxCell id="hDxaC9_sMp4ZAa9-V2y2-272" style="edgeStyle=orthogonalEdgeStyle;rounded=0;orthogonalLoop=1;jettySize=auto;html=1;exitX=0.5;exitY=1;exitDx=0;exitDy=0;entryX=0.145;entryY=0.633;entryDx=0;entryDy=0;entryPerimeter=0;" parent="1" source="hDxaC9_sMp4ZAa9-V2y2-66" target="hDxaC9_sMp4ZAa9-V2y2-71" edge="1">
          <mxGeometry relative="1" as="geometry" />
        </mxCell>
        <mxCell id="hDxaC9_sMp4ZAa9-V2y2-273" style="edgeStyle=orthogonalEdgeStyle;rounded=0;orthogonalLoop=1;jettySize=auto;html=1;exitX=0.5;exitY=1;exitDx=0;exitDy=0;entryX=0.556;entryY=0.567;entryDx=0;entryDy=0;entryPerimeter=0;" parent="1" source="hDxaC9_sMp4ZAa9-V2y2-67" target="hDxaC9_sMp4ZAa9-V2y2-71" edge="1">
          <mxGeometry relative="1" as="geometry" />
        </mxCell>
        <mxCell id="hDxaC9_sMp4ZAa9-V2y2-274" style="edgeStyle=orthogonalEdgeStyle;rounded=0;orthogonalLoop=1;jettySize=auto;html=1;exitX=0.5;exitY=1;exitDx=0;exitDy=0;entryX=0.916;entryY=0.567;entryDx=0;entryDy=0;entryPerimeter=0;" parent="1" source="hDxaC9_sMp4ZAa9-V2y2-69" target="hDxaC9_sMp4ZAa9-V2y2-71" edge="1">
          <mxGeometry relative="1" as="geometry" />
        </mxCell>
        <mxCell id="hDxaC9_sMp4ZAa9-V2y2-275" style="edgeStyle=orthogonalEdgeStyle;rounded=0;orthogonalLoop=1;jettySize=auto;html=1;exitX=1;exitY=0.5;exitDx=0;exitDy=0;" parent="1" source="hDxaC9_sMp4ZAa9-V2y2-59" edge="1">
          <mxGeometry relative="1" as="geometry">
            <mxPoint x="-610" y="845" as="targetPoint" />
          </mxGeometry>
        </mxCell>
        <mxCell id="hDxaC9_sMp4ZAa9-V2y2-281" value="Payment" style="rounded=1;whiteSpace=wrap;html=1;" parent="1" vertex="1">
          <mxGeometry x="-612" y="1030" width="91" height="30" as="geometry" />
        </mxCell>
        <mxCell id="hDxaC9_sMp4ZAa9-V2y2-310" style="edgeStyle=orthogonalEdgeStyle;rounded=0;orthogonalLoop=1;jettySize=auto;html=1;exitX=0.5;exitY=1;exitDx=0;exitDy=0;entryX=0.5;entryY=0;entryDx=0;entryDy=0;" parent="1" source="hDxaC9_sMp4ZAa9-V2y2-291" edge="1">
          <mxGeometry relative="1" as="geometry">
            <mxPoint x="-355.6199999999999" y="555" as="targetPoint" />
          </mxGeometry>
        </mxCell>
        <mxCell id="hDxaC9_sMp4ZAa9-V2y2-291" value="Apply For Back" style="rounded=1;whiteSpace=wrap;html=1;" parent="1" vertex="1">
          <mxGeometry x="-390.25" y="510" width="69.25" height="30" as="geometry" />
        </mxCell>
        <mxCell id="hDxaC9_sMp4ZAa9-V2y2-311" style="edgeStyle=orthogonalEdgeStyle;rounded=0;orthogonalLoop=1;jettySize=auto;html=1;exitX=1;exitY=0.5;exitDx=0;exitDy=0;entryX=0.25;entryY=0;entryDx=0;entryDy=0;" parent="1" source="hDxaC9_sMp4ZAa9-V2y2-304" target="hDxaC9_sMp4ZAa9-V2y2-307" edge="1">
          <mxGeometry relative="1" as="geometry" />
        </mxCell>
        <mxCell id="hDxaC9_sMp4ZAa9-V2y2-304" value="Accept ?" style="rhombus;whiteSpace=wrap;html=1;" parent="1" vertex="1">
          <mxGeometry x="-393.62" y="555" width="76" height="30" as="geometry" />
        </mxCell>
        <mxCell id="hDxaC9_sMp4ZAa9-V2y2-305" value="No" style="text;html=1;align=center;verticalAlign=middle;resizable=0;points=[];autosize=1;strokeColor=none;fillColor=none;" parent="1" vertex="1">
          <mxGeometry x="-324.5" y="540" width="40" height="30" as="geometry" />
        </mxCell>
        <mxCell id="hDxaC9_sMp4ZAa9-V2y2-306" value="Yes" style="text;html=1;align=center;verticalAlign=middle;resizable=0;points=[];autosize=1;strokeColor=none;fillColor=none;" parent="1" vertex="1">
          <mxGeometry x="-393.62" y="582.5" width="40" height="30" as="geometry" />
        </mxCell>
        <mxCell id="hDxaC9_sMp4ZAa9-V2y2-307" value="Accept Terms &amp;amp; Condition" style="rounded=1;whiteSpace=wrap;html=1;" parent="1" vertex="1">
          <mxGeometry x="-300" y="582.5" width="55.5" height="55" as="geometry" />
        </mxCell>
        <mxCell id="hDxaC9_sMp4ZAa9-V2y2-308" value="Payment" style="rounded=1;whiteSpace=wrap;html=1;" parent="1" vertex="1">
          <mxGeometry x="-396.5" y="625" width="91" height="30" as="geometry" />
        </mxCell>
        <mxCell id="hDxaC9_sMp4ZAa9-V2y2-309" style="edgeStyle=orthogonalEdgeStyle;rounded=0;orthogonalLoop=1;jettySize=auto;html=1;exitX=0.5;exitY=1;exitDx=0;exitDy=0;entryX=0.45;entryY=0.058;entryDx=0;entryDy=0;entryPerimeter=0;" parent="1" source="hDxaC9_sMp4ZAa9-V2y2-304" target="hDxaC9_sMp4ZAa9-V2y2-308" edge="1">
          <mxGeometry relative="1" as="geometry" />
        </mxCell>
        <mxCell id="hDxaC9_sMp4ZAa9-V2y2-313" style="edgeStyle=orthogonalEdgeStyle;rounded=0;orthogonalLoop=1;jettySize=auto;html=1;exitX=0.5;exitY=1;exitDx=0;exitDy=0;entryX=0.452;entryY=0.11;entryDx=0;entryDy=0;entryPerimeter=0;" parent="1" source="hDxaC9_sMp4ZAa9-V2y2-120" target="hDxaC9_sMp4ZAa9-V2y2-153" edge="1">
          <mxGeometry relative="1" as="geometry" />
        </mxCell>
        <mxCell id="hDxaC9_sMp4ZAa9-V2y2-315" style="edgeStyle=orthogonalEdgeStyle;rounded=0;orthogonalLoop=1;jettySize=auto;html=1;exitX=0.25;exitY=0.5;exitDx=0;exitDy=0;exitPerimeter=0;entryX=0.5;entryY=0;entryDx=0;entryDy=0;" parent="1" edge="1">
          <mxGeometry relative="1" as="geometry">
            <mxPoint x="244.5" y="470" as="sourcePoint" />
            <mxPoint x="187.5" y="495" as="targetPoint" />
            <Array as="points">
              <mxPoint x="189.5" y="470" />
              <mxPoint x="189.5" y="472" />
              <mxPoint x="187.5" y="472" />
            </Array>
          </mxGeometry>
        </mxCell>
        <mxCell id="hDxaC9_sMp4ZAa9-V2y2-320" style="edgeStyle=orthogonalEdgeStyle;rounded=0;orthogonalLoop=1;jettySize=auto;html=1;exitX=0.25;exitY=0.5;exitDx=0;exitDy=0;exitPerimeter=0;entryX=0.5;entryY=0;entryDx=0;entryDy=0;" parent="1" edge="1">
          <mxGeometry relative="1" as="geometry">
            <mxPoint x="366.25" y="375" as="sourcePoint" />
            <mxPoint x="309.25" y="400" as="targetPoint" />
            <Array as="points">
              <mxPoint x="311.5" y="375" />
              <mxPoint x="311.5" y="377" />
              <mxPoint x="309.5" y="377" />
            </Array>
          </mxGeometry>
        </mxCell>
        <mxCell id="hDxaC9_sMp4ZAa9-V2y2-324" style="edgeStyle=orthogonalEdgeStyle;rounded=0;orthogonalLoop=1;jettySize=auto;html=1;exitX=0.5;exitY=1;exitDx=0;exitDy=0;entryX=0.497;entryY=0.125;entryDx=0;entryDy=0;entryPerimeter=0;" parent="1" source="hDxaC9_sMp4ZAa9-V2y2-168" target="hDxaC9_sMp4ZAa9-V2y2-170" edge="1">
          <mxGeometry relative="1" as="geometry" />
        </mxCell>
        <mxCell id="hDxaC9_sMp4ZAa9-V2y2-328" style="edgeStyle=orthogonalEdgeStyle;rounded=0;orthogonalLoop=1;jettySize=auto;html=1;exitX=1;exitY=0.5;exitDx=0;exitDy=0;entryX=0.42;entryY=0.025;entryDx=0;entryDy=0;entryPerimeter=0;" parent="1" source="hDxaC9_sMp4ZAa9-V2y2-189" target="hDxaC9_sMp4ZAa9-V2y2-198" edge="1">
          <mxGeometry relative="1" as="geometry" />
        </mxCell>
        <mxCell id="hDxaC9_sMp4ZAa9-V2y2-329" style="edgeStyle=orthogonalEdgeStyle;rounded=0;orthogonalLoop=1;jettySize=auto;html=1;exitX=0;exitY=0.5;exitDx=0;exitDy=0;entryX=0.426;entryY=0.011;entryDx=0;entryDy=0;entryPerimeter=0;" parent="1" source="hDxaC9_sMp4ZAa9-V2y2-189" edge="1">
          <mxGeometry relative="1" as="geometry">
            <mxPoint x="453.9899999999998" y="560.6600000000001" as="targetPoint" />
          </mxGeometry>
        </mxCell>
        <mxCell id="hDxaC9_sMp4ZAa9-V2y2-330" style="edgeStyle=orthogonalEdgeStyle;rounded=0;orthogonalLoop=1;jettySize=auto;html=1;exitX=0.25;exitY=0.5;exitDx=0;exitDy=0;exitPerimeter=0;entryX=0.5;entryY=0;entryDx=0;entryDy=0;" parent="1" edge="1">
          <mxGeometry relative="1" as="geometry">
            <mxPoint x="482" y="375" as="sourcePoint" />
            <mxPoint x="425" y="400" as="targetPoint" />
            <Array as="points">
              <mxPoint x="427.25" y="375" />
              <mxPoint x="427.25" y="377" />
              <mxPoint x="425.25" y="377" />
            </Array>
          </mxGeometry>
        </mxCell>
        <mxCell id="hDxaC9_sMp4ZAa9-V2y2-333" style="edgeStyle=orthogonalEdgeStyle;rounded=0;orthogonalLoop=1;jettySize=auto;html=1;exitX=0.25;exitY=0.5;exitDx=0;exitDy=0;exitPerimeter=0;entryX=0.5;entryY=0;entryDx=0;entryDy=0;" parent="1" edge="1">
          <mxGeometry relative="1" as="geometry">
            <mxPoint x="600" y="375" as="sourcePoint" />
            <mxPoint x="543" y="400" as="targetPoint" />
            <Array as="points">
              <mxPoint x="545.25" y="375" />
              <mxPoint x="545.25" y="377" />
              <mxPoint x="543.25" y="377" />
            </Array>
          </mxGeometry>
        </mxCell>
        <mxCell id="hDxaC9_sMp4ZAa9-V2y2-353" style="edgeStyle=orthogonalEdgeStyle;rounded=0;orthogonalLoop=1;jettySize=auto;html=1;exitX=0.5;exitY=1;exitDx=0;exitDy=0;entryX=0.5;entryY=0;entryDx=0;entryDy=0;" parent="1" source="hDxaC9_sMp4ZAa9-V2y2-347" target="hDxaC9_sMp4ZAa9-V2y2-352" edge="1">
          <mxGeometry relative="1" as="geometry" />
        </mxCell>
        <mxCell id="hDxaC9_sMp4ZAa9-V2y2-347" value="View Registraction Form" style="rounded=1;whiteSpace=wrap;html=1;" parent="1" vertex="1">
          <mxGeometry x="690" y="462.5" width="114.5" height="40" as="geometry" />
        </mxCell>
        <mxCell id="hDxaC9_sMp4ZAa9-V2y2-351" style="edgeStyle=orthogonalEdgeStyle;rounded=0;orthogonalLoop=1;jettySize=auto;html=1;exitX=0.5;exitY=1;exitDx=0;exitDy=0;entryX=0.5;entryY=0;entryDx=0;entryDy=0;" parent="1" source="hDxaC9_sMp4ZAa9-V2y2-348" target="hDxaC9_sMp4ZAa9-V2y2-347" edge="1">
          <mxGeometry relative="1" as="geometry" />
        </mxCell>
        <mxCell id="hDxaC9_sMp4ZAa9-V2y2-348" value="Sell With Us" style="rounded=1;whiteSpace=wrap;html=1;" parent="1" vertex="1">
          <mxGeometry x="701.75" y="407.5" width="91" height="30" as="geometry" />
        </mxCell>
        <mxCell id="hDxaC9_sMp4ZAa9-V2y2-349" style="edgeStyle=orthogonalEdgeStyle;rounded=0;orthogonalLoop=1;jettySize=auto;html=1;exitX=0.25;exitY=0.5;exitDx=0;exitDy=0;exitPerimeter=0;entryX=0.5;entryY=0;entryDx=0;entryDy=0;" parent="1" edge="1" target="hDxaC9_sMp4ZAa9-V2y2-348">
          <mxGeometry relative="1" as="geometry">
            <mxPoint x="994.5" y="375" as="sourcePoint" />
            <mxPoint x="937.5" y="400" as="targetPoint" />
            <Array as="points">
              <mxPoint x="940" y="375" />
              <mxPoint x="940" y="377" />
              <mxPoint x="747" y="377" />
            </Array>
          </mxGeometry>
        </mxCell>
        <mxCell id="hDxaC9_sMp4ZAa9-V2y2-354" style="edgeStyle=orthogonalEdgeStyle;rounded=0;orthogonalLoop=1;jettySize=auto;html=1;exitX=1;exitY=0.5;exitDx=0;exitDy=0;" parent="1" source="hDxaC9_sMp4ZAa9-V2y2-352" edge="1">
          <mxGeometry relative="1" as="geometry">
            <mxPoint x="807.25" y="542.8333333333334" as="targetPoint" />
          </mxGeometry>
        </mxCell>
        <mxCell id="hDxaC9_sMp4ZAa9-V2y2-359" style="edgeStyle=orthogonalEdgeStyle;rounded=0;orthogonalLoop=1;jettySize=auto;html=1;exitX=0.5;exitY=1;exitDx=0;exitDy=0;entryX=0.5;entryY=0;entryDx=0;entryDy=0;" parent="1" source="hDxaC9_sMp4ZAa9-V2y2-352" target="hDxaC9_sMp4ZAa9-V2y2-358" edge="1">
          <mxGeometry relative="1" as="geometry" />
        </mxCell>
        <mxCell id="hDxaC9_sMp4ZAa9-V2y2-352" value="Approve ?" style="rhombus;whiteSpace=wrap;html=1;" parent="1" vertex="1">
          <mxGeometry x="700" y="517.5" width="84" height="47.5" as="geometry" />
        </mxCell>
        <mxCell id="hDxaC9_sMp4ZAa9-V2y2-355" value="Notify Seller" style="rounded=1;whiteSpace=wrap;html=1;" parent="1" vertex="1">
          <mxGeometry x="804.5" y="527.5" width="91" height="30" as="geometry" />
        </mxCell>
        <mxCell id="hDxaC9_sMp4ZAa9-V2y2-356" value="No" style="text;html=1;align=center;verticalAlign=middle;resizable=0;points=[];autosize=1;strokeColor=none;fillColor=none;" parent="1" vertex="1">
          <mxGeometry x="764.5" y="507.5" width="40" height="30" as="geometry" />
        </mxCell>
        <mxCell id="hDxaC9_sMp4ZAa9-V2y2-357" value="Yes" style="text;html=1;align=center;verticalAlign=middle;resizable=0;points=[];autosize=1;strokeColor=none;fillColor=none;" parent="1" vertex="1">
          <mxGeometry x="690" y="552.5" width="40" height="30" as="geometry" />
        </mxCell>
        <mxCell id="hDxaC9_sMp4ZAa9-V2y2-358" value="Add Product&amp;nbsp;" style="rounded=1;whiteSpace=wrap;html=1;" parent="1" vertex="1">
          <mxGeometry x="701.75" y="595" width="91" height="30" as="geometry" />
        </mxCell>
        <mxCell id="hDxaC9_sMp4ZAa9-V2y2-360" value="" style="shape=line;html=1;strokeWidth=6;strokeColor=#000000;" parent="1" vertex="1">
          <mxGeometry x="-254.5" y="915" width="510" height="10" as="geometry" />
        </mxCell>
        <mxCell id="hDxaC9_sMp4ZAa9-V2y2-361" style="edgeStyle=orthogonalEdgeStyle;rounded=0;orthogonalLoop=1;jettySize=auto;html=1;exitX=0.5;exitY=1;exitDx=0;exitDy=0;entryX=0.141;entryY=0.165;entryDx=0;entryDy=0;entryPerimeter=0;" parent="1" source="hDxaC9_sMp4ZAa9-V2y2-134" target="hDxaC9_sMp4ZAa9-V2y2-360" edge="1">
          <mxGeometry relative="1" as="geometry" />
        </mxCell>
        <mxCell id="hDxaC9_sMp4ZAa9-V2y2-362" style="edgeStyle=orthogonalEdgeStyle;rounded=0;orthogonalLoop=1;jettySize=auto;html=1;exitX=0.5;exitY=1;exitDx=0;exitDy=0;entryX=0.425;entryY=0.4;entryDx=0;entryDy=0;entryPerimeter=0;" parent="1" source="hDxaC9_sMp4ZAa9-V2y2-150" target="hDxaC9_sMp4ZAa9-V2y2-360" edge="1">
          <mxGeometry relative="1" as="geometry" />
        </mxCell>
        <mxCell id="hDxaC9_sMp4ZAa9-V2y2-363" style="edgeStyle=orthogonalEdgeStyle;rounded=0;orthogonalLoop=1;jettySize=auto;html=1;exitX=0.5;exitY=1;exitDx=0;exitDy=0;entryX=0.671;entryY=0.4;entryDx=0;entryDy=0;entryPerimeter=0;" parent="1" source="hDxaC9_sMp4ZAa9-V2y2-154" target="hDxaC9_sMp4ZAa9-V2y2-360" edge="1">
          <mxGeometry relative="1" as="geometry" />
        </mxCell>
        <mxCell id="hDxaC9_sMp4ZAa9-V2y2-364" style="edgeStyle=orthogonalEdgeStyle;rounded=0;orthogonalLoop=1;jettySize=auto;html=1;exitX=0.5;exitY=1;exitDx=0;exitDy=0;entryX=0.881;entryY=0.518;entryDx=0;entryDy=0;entryPerimeter=0;" parent="1" source="hDxaC9_sMp4ZAa9-V2y2-161" target="hDxaC9_sMp4ZAa9-V2y2-360" edge="1">
          <mxGeometry relative="1" as="geometry" />
        </mxCell>
        <mxCell id="hDxaC9_sMp4ZAa9-V2y2-366" value="" style="endArrow=classic;html=1;rounded=0;exitX=0.492;exitY=0.617;exitDx=0;exitDy=0;exitPerimeter=0;entryX=0.405;entryY=0.25;entryDx=0;entryDy=0;entryPerimeter=0;" parent="1" source="hDxaC9_sMp4ZAa9-V2y2-360" target="hDxaC9_sMp4ZAa9-V2y2-367" edge="1">
          <mxGeometry width="50" height="50" relative="1" as="geometry">
            <mxPoint x="30" y="980" as="sourcePoint" />
            <mxPoint x="-4" y="1060" as="targetPoint" />
          </mxGeometry>
        </mxCell>
        <mxCell id="hDxaC9_sMp4ZAa9-V2y2-367" value="" style="shape=line;html=1;strokeWidth=6;strokeColor=#333333;" parent="1" vertex="1">
          <mxGeometry x="-810" y="1080" width="2000" height="10" as="geometry" />
        </mxCell>
        <mxCell id="hDxaC9_sMp4ZAa9-V2y2-369" style="edgeStyle=orthogonalEdgeStyle;rounded=0;orthogonalLoop=1;jettySize=auto;html=1;exitX=0.25;exitY=0.5;exitDx=0;exitDy=0;exitPerimeter=0;entryX=0.5;entryY=0;entryDx=0;entryDy=0;" parent="1" edge="1">
          <mxGeometry relative="1" as="geometry">
            <mxPoint x="50.25" y="375" as="sourcePoint" />
            <mxPoint x="-6.75" y="400" as="targetPoint" />
            <Array as="points">
              <mxPoint x="-4.5" y="375" />
              <mxPoint x="-4.5" y="377" />
              <mxPoint x="-6.5" y="377" />
            </Array>
          </mxGeometry>
        </mxCell>
        <mxCell id="hDxaC9_sMp4ZAa9-V2y2-370" style="edgeStyle=orthogonalEdgeStyle;rounded=0;orthogonalLoop=1;jettySize=auto;html=1;exitX=0.5;exitY=1;exitDx=0;exitDy=0;entryX=0.488;entryY=0.276;entryDx=0;entryDy=0;entryPerimeter=0;" parent="1" source="hDxaC9_sMp4ZAa9-V2y2-114" target="hDxaC9_sMp4ZAa9-V2y2-116" edge="1">
          <mxGeometry relative="1" as="geometry" />
        </mxCell>
        <mxCell id="hDxaC9_sMp4ZAa9-V2y2-371" style="edgeStyle=orthogonalEdgeStyle;rounded=0;orthogonalLoop=1;jettySize=auto;html=1;exitX=0.5;exitY=1;exitDx=0;exitDy=0;" parent="1" source="hDxaC9_sMp4ZAa9-V2y2-179" edge="1">
          <mxGeometry relative="1" as="geometry">
            <mxPoint x="312" y="1080" as="targetPoint" />
          </mxGeometry>
        </mxCell>
        <mxCell id="hDxaC9_sMp4ZAa9-V2y2-420" style="edgeStyle=orthogonalEdgeStyle;rounded=0;orthogonalLoop=1;jettySize=auto;html=1;exitX=0.5;exitY=1;exitDx=0;exitDy=0;entryX=0.657;entryY=0.167;entryDx=0;entryDy=0;entryPerimeter=0;" parent="1" source="hDxaC9_sMp4ZAa9-V2y2-194" target="hDxaC9_sMp4ZAa9-V2y2-367" edge="1">
          <mxGeometry relative="1" as="geometry" />
        </mxCell>
        <mxCell id="hDxaC9_sMp4ZAa9-V2y2-427" style="edgeStyle=orthogonalEdgeStyle;rounded=0;orthogonalLoop=1;jettySize=auto;html=1;exitX=0.5;exitY=1;exitDx=0;exitDy=0;entryX=0.5;entryY=0;entryDx=0;entryDy=0;" parent="1" source="hDxaC9_sMp4ZAa9-V2y2-428" target="hDxaC9_sMp4ZAa9-V2y2-429" edge="1">
          <mxGeometry relative="1" as="geometry" />
        </mxCell>
        <mxCell id="hDxaC9_sMp4ZAa9-V2y2-428" value="&lt;h3&gt;Logout&lt;/h3&gt;" style="rounded=1;whiteSpace=wrap;html=1;" parent="1" vertex="1">
          <mxGeometry x="61" y="1142.5" width="120" height="60" as="geometry" />
        </mxCell>
        <mxCell id="hDxaC9_sMp4ZAa9-V2y2-429" value="" style="ellipse;html=1;shape=endState;fillColor=#000000;strokeColor=#000000;" parent="1" vertex="1">
          <mxGeometry x="106.75" y="1252.5" width="30" height="30" as="geometry" />
        </mxCell>
        <mxCell id="hDxaC9_sMp4ZAa9-V2y2-430" style="edgeStyle=orthogonalEdgeStyle;rounded=0;orthogonalLoop=1;jettySize=auto;html=1;" parent="1" edge="1">
          <mxGeometry relative="1" as="geometry">
            <mxPoint x="118.73000000000002" y="1080" as="sourcePoint" />
            <mxPoint x="118.73000000000002" y="1140" as="targetPoint" />
          </mxGeometry>
        </mxCell>
        <mxCell id="nFEXKwQEyR-fORtjU35N-1" style="edgeStyle=orthogonalEdgeStyle;rounded=0;orthogonalLoop=1;jettySize=auto;html=1;exitX=0.5;exitY=1;exitDx=0;exitDy=0;entryX=0.446;entryY=0.033;entryDx=0;entryDy=0;entryPerimeter=0;" edge="1" parent="1" source="hDxaC9_sMp4ZAa9-V2y2-40" target="hDxaC9_sMp4ZAa9-V2y2-45">
          <mxGeometry relative="1" as="geometry" />
        </mxCell>
        <mxCell id="nFEXKwQEyR-fORtjU35N-3" style="edgeStyle=orthogonalEdgeStyle;rounded=0;orthogonalLoop=1;jettySize=auto;html=1;exitX=0.5;exitY=1;exitDx=0;exitDy=0;entryX=0.779;entryY=0.167;entryDx=0;entryDy=0;entryPerimeter=0;" edge="1" parent="1" source="hDxaC9_sMp4ZAa9-V2y2-358" target="hDxaC9_sMp4ZAa9-V2y2-367">
          <mxGeometry relative="1" as="geometry" />
        </mxCell>
        <mxCell id="nFEXKwQEyR-fORtjU35N-5" style="edgeStyle=orthogonalEdgeStyle;rounded=0;orthogonalLoop=1;jettySize=auto;html=1;exitX=0.5;exitY=1;exitDx=0;exitDy=0;entryX=0.83;entryY=0;entryDx=0;entryDy=0;entryPerimeter=0;" edge="1" parent="1" source="hDxaC9_sMp4ZAa9-V2y2-355" target="hDxaC9_sMp4ZAa9-V2y2-367">
          <mxGeometry relative="1" as="geometry" />
        </mxCell>
      </root>
    </mxGraphModel>
  </diagram>
</mxfile>
